<mxfile host="app.diagrams.net" modified="2021-08-04T17:31:55.791Z" agent="5.0 (Macintosh; Intel Mac OS X 10_15_6) AppleWebKit/537.36 (KHTML, like Gecko) Chrome/91.0.4472.164 Safari/537.36" etag="uqNmqWpp473gWnSwhyue" version="14.9.2" type="github">
  <diagram id="OydbAKeb5Mhexe5D2AIT" name="Page-1">
    <mxGraphModel dx="2037" dy="1133" grid="1" gridSize="10" guides="1" tooltips="1" connect="1" arrows="1" fold="1" page="1" pageScale="1" pageWidth="827" pageHeight="1169" math="0" shadow="0">
      <root>
        <mxCell id="0" />
        <mxCell id="1" parent="0" />
        <mxCell id="3j7t8abPpOjhpxrlUmNu-101" value="" style="rounded=1;whiteSpace=wrap;html=1;fillColor=#d5e8d4;strokeColor=#82b366;sketch=1;" parent="1" vertex="1">
          <mxGeometry x="860" y="740" width="450" height="220" as="geometry" />
        </mxCell>
        <mxCell id="3j7t8abPpOjhpxrlUmNu-92" value="" style="rounded=1;whiteSpace=wrap;html=1;sketch=1;" parent="1" vertex="1">
          <mxGeometry x="780" y="200" width="520" height="450" as="geometry" />
        </mxCell>
        <mxCell id="3j7t8abPpOjhpxrlUmNu-36" style="edgeStyle=orthogonalEdgeStyle;rounded=0;orthogonalLoop=1;jettySize=auto;html=1;exitX=1;exitY=0.5;exitDx=0;exitDy=0;entryX=0;entryY=0.5;entryDx=0;entryDy=0;sketch=1;" parent="1" source="3j7t8abPpOjhpxrlUmNu-2" target="3j7t8abPpOjhpxrlUmNu-32" edge="1">
          <mxGeometry relative="1" as="geometry" />
        </mxCell>
        <mxCell id="3j7t8abPpOjhpxrlUmNu-2" value="前端" style="rounded=1;whiteSpace=wrap;html=1;fillColor=#ffe6cc;strokeColor=#d79b00;sketch=1;" parent="1" vertex="1">
          <mxGeometry x="50" y="215" width="90" height="30" as="geometry" />
        </mxCell>
        <mxCell id="3j7t8abPpOjhpxrlUmNu-8" style="edgeStyle=orthogonalEdgeStyle;rounded=0;orthogonalLoop=1;jettySize=auto;html=1;exitX=1;exitY=0.5;exitDx=0;exitDy=0;entryX=0;entryY=0.5;entryDx=0;entryDy=0;entryPerimeter=0;sketch=1;" parent="1" source="3j7t8abPpOjhpxrlUmNu-3" target="3j7t8abPpOjhpxrlUmNu-6" edge="1">
          <mxGeometry relative="1" as="geometry" />
        </mxCell>
        <mxCell id="3j7t8abPpOjhpxrlUmNu-9" style="edgeStyle=orthogonalEdgeStyle;rounded=0;orthogonalLoop=1;jettySize=auto;html=1;exitX=1;exitY=0.5;exitDx=0;exitDy=0;sketch=1;" parent="1" source="3j7t8abPpOjhpxrlUmNu-3" target="3j7t8abPpOjhpxrlUmNu-7" edge="1">
          <mxGeometry relative="1" as="geometry" />
        </mxCell>
        <mxCell id="3j7t8abPpOjhpxrlUmNu-3" value="爬虫系统" style="rounded=1;whiteSpace=wrap;html=1;fillColor=#f8cecc;strokeColor=#b85450;sketch=1;" parent="1" vertex="1">
          <mxGeometry x="280" y="200" width="120" height="60" as="geometry" />
        </mxCell>
        <mxCell id="3j7t8abPpOjhpxrlUmNu-21" style="edgeStyle=orthogonalEdgeStyle;rounded=0;orthogonalLoop=1;jettySize=auto;html=1;exitX=1;exitY=0.5;exitDx=0;exitDy=0;exitPerimeter=0;entryX=0;entryY=0.5;entryDx=0;entryDy=0;entryPerimeter=0;sketch=1;" parent="1" source="3j7t8abPpOjhpxrlUmNu-6" target="3j7t8abPpOjhpxrlUmNu-19" edge="1">
          <mxGeometry relative="1" as="geometry">
            <Array as="points">
              <mxPoint x="560" y="180" />
              <mxPoint x="580" y="180" />
            </Array>
          </mxGeometry>
        </mxCell>
        <mxCell id="3j7t8abPpOjhpxrlUmNu-22" style="edgeStyle=orthogonalEdgeStyle;rounded=0;orthogonalLoop=1;jettySize=auto;html=1;exitX=1;exitY=0;exitDx=0;exitDy=37.5;exitPerimeter=0;entryX=0;entryY=0;entryDx=0;entryDy=37.5;entryPerimeter=0;sketch=1;" parent="1" source="3j7t8abPpOjhpxrlUmNu-6" target="3j7t8abPpOjhpxrlUmNu-20" edge="1">
          <mxGeometry relative="1" as="geometry">
            <Array as="points">
              <mxPoint x="580" y="198" />
              <mxPoint x="580" y="223" />
            </Array>
          </mxGeometry>
        </mxCell>
        <mxCell id="3j7t8abPpOjhpxrlUmNu-24" style="edgeStyle=orthogonalEdgeStyle;rounded=0;orthogonalLoop=1;jettySize=auto;html=1;exitX=0.5;exitY=0;exitDx=0;exitDy=0;exitPerimeter=0;entryX=0.5;entryY=1;entryDx=0;entryDy=0;sketch=1;" parent="1" source="3j7t8abPpOjhpxrlUmNu-6" target="3j7t8abPpOjhpxrlUmNu-23" edge="1">
          <mxGeometry relative="1" as="geometry">
            <Array as="points">
              <mxPoint x="540" y="120" />
              <mxPoint x="605" y="120" />
            </Array>
          </mxGeometry>
        </mxCell>
        <mxCell id="3j7t8abPpOjhpxrlUmNu-6" value="Redis" style="shape=cylinder3;whiteSpace=wrap;html=1;boundedLbl=1;backgroundOutline=1;size=15;sketch=1;" parent="1" vertex="1">
          <mxGeometry x="520" y="160" width="40" height="60" as="geometry" />
        </mxCell>
        <mxCell id="3j7t8abPpOjhpxrlUmNu-28" style="edgeStyle=orthogonalEdgeStyle;rounded=0;orthogonalLoop=1;jettySize=auto;html=1;exitX=1;exitY=0.5;exitDx=0;exitDy=0;exitPerimeter=0;entryX=0;entryY=0.5;entryDx=0;entryDy=0;entryPerimeter=0;sketch=1;" parent="1" source="3j7t8abPpOjhpxrlUmNu-7" target="3j7t8abPpOjhpxrlUmNu-27" edge="1">
          <mxGeometry relative="1" as="geometry" />
        </mxCell>
        <mxCell id="3j7t8abPpOjhpxrlUmNu-7" value="Mysql" style="shape=cylinder3;whiteSpace=wrap;html=1;boundedLbl=1;backgroundOutline=1;size=15;fillColor=#dae8fc;strokeColor=#6c8ebf;sketch=1;" parent="1" vertex="1">
          <mxGeometry x="520" y="260" width="40" height="60" as="geometry" />
        </mxCell>
        <mxCell id="3j7t8abPpOjhpxrlUmNu-17" value="爬虫系统" style="rounded=1;whiteSpace=wrap;html=1;fillColor=#f8cecc;strokeColor=#b85450;sketch=1;" parent="1" vertex="1">
          <mxGeometry x="290" y="210" width="120" height="60" as="geometry" />
        </mxCell>
        <mxCell id="3j7t8abPpOjhpxrlUmNu-98" style="edgeStyle=orthogonalEdgeStyle;rounded=0;orthogonalLoop=1;jettySize=auto;html=1;exitX=1;exitY=0.5;exitDx=0;exitDy=0;entryX=0;entryY=0.5;entryDx=0;entryDy=0;entryPerimeter=0;sketch=1;" parent="1" source="3j7t8abPpOjhpxrlUmNu-18" target="3j7t8abPpOjhpxrlUmNu-97" edge="1">
          <mxGeometry relative="1" as="geometry" />
        </mxCell>
        <mxCell id="3j7t8abPpOjhpxrlUmNu-99" style="edgeStyle=orthogonalEdgeStyle;rounded=0;orthogonalLoop=1;jettySize=auto;html=1;exitX=1;exitY=0.5;exitDx=0;exitDy=0;entryX=0;entryY=0;entryDx=0;entryDy=37.5;entryPerimeter=0;sketch=1;" parent="1" source="3j7t8abPpOjhpxrlUmNu-18" target="3j7t8abPpOjhpxrlUmNu-96" edge="1">
          <mxGeometry relative="1" as="geometry" />
        </mxCell>
        <mxCell id="3j7t8abPpOjhpxrlUmNu-18" value="秒杀系统" style="rounded=1;whiteSpace=wrap;html=1;fillColor=#f8cecc;strokeColor=#b85450;sketch=1;" parent="1" vertex="1">
          <mxGeometry x="1050" y="835" width="110" height="40" as="geometry" />
        </mxCell>
        <mxCell id="3j7t8abPpOjhpxrlUmNu-25" style="edgeStyle=orthogonalEdgeStyle;rounded=0;orthogonalLoop=1;jettySize=auto;html=1;exitX=0.5;exitY=0;exitDx=0;exitDy=0;exitPerimeter=0;entryX=0.5;entryY=1;entryDx=0;entryDy=0;sketch=1;" parent="1" source="3j7t8abPpOjhpxrlUmNu-19" target="3j7t8abPpOjhpxrlUmNu-23" edge="1">
          <mxGeometry relative="1" as="geometry" />
        </mxCell>
        <mxCell id="3j7t8abPpOjhpxrlUmNu-19" value="Redis" style="shape=cylinder3;whiteSpace=wrap;html=1;boundedLbl=1;backgroundOutline=1;size=15;sketch=1;" parent="1" vertex="1">
          <mxGeometry x="590" y="125" width="40" height="60" as="geometry" />
        </mxCell>
        <mxCell id="3j7t8abPpOjhpxrlUmNu-26" style="edgeStyle=orthogonalEdgeStyle;rounded=0;orthogonalLoop=1;jettySize=auto;html=1;exitX=1;exitY=0;exitDx=0;exitDy=37.5;exitPerimeter=0;entryX=0.75;entryY=1;entryDx=0;entryDy=0;sketch=1;" parent="1" source="3j7t8abPpOjhpxrlUmNu-20" target="3j7t8abPpOjhpxrlUmNu-23" edge="1">
          <mxGeometry relative="1" as="geometry" />
        </mxCell>
        <mxCell id="3j7t8abPpOjhpxrlUmNu-20" value="Redis" style="shape=cylinder3;whiteSpace=wrap;html=1;boundedLbl=1;backgroundOutline=1;size=15;sketch=1;" parent="1" vertex="1">
          <mxGeometry x="590" y="185" width="40" height="60" as="geometry" />
        </mxCell>
        <mxCell id="3j7t8abPpOjhpxrlUmNu-23" value="Sentinel" style="rounded=1;whiteSpace=wrap;html=1;fillColor=#ffe6cc;strokeColor=#d79b00;sketch=1;" parent="1" vertex="1">
          <mxGeometry x="530" y="70" width="150" height="30" as="geometry" />
        </mxCell>
        <mxCell id="3j7t8abPpOjhpxrlUmNu-27" value="Mysql" style="shape=cylinder3;whiteSpace=wrap;html=1;boundedLbl=1;backgroundOutline=1;size=15;fillColor=#f5f5f5;strokeColor=#666666;fontColor=#333333;sketch=1;" parent="1" vertex="1">
          <mxGeometry x="585" y="260" width="40" height="60" as="geometry" />
        </mxCell>
        <mxCell id="3j7t8abPpOjhpxrlUmNu-29" value="哨兵集群" style="text;html=1;strokeColor=none;fillColor=none;align=center;verticalAlign=middle;whiteSpace=wrap;rounded=0;sketch=1;" parent="1" vertex="1">
          <mxGeometry x="470" y="130" width="50" height="15" as="geometry" />
        </mxCell>
        <mxCell id="3j7t8abPpOjhpxrlUmNu-30" value="主从部署" style="text;html=1;strokeColor=none;fillColor=none;align=center;verticalAlign=middle;whiteSpace=wrap;rounded=0;sketch=1;" parent="1" vertex="1">
          <mxGeometry x="550" y="330" width="60" height="15" as="geometry" />
        </mxCell>
        <mxCell id="3j7t8abPpOjhpxrlUmNu-35" style="edgeStyle=orthogonalEdgeStyle;rounded=0;orthogonalLoop=1;jettySize=auto;html=1;exitX=1;exitY=0.5;exitDx=0;exitDy=0;entryX=0;entryY=0.5;entryDx=0;entryDy=0;sketch=1;" parent="1" source="3j7t8abPpOjhpxrlUmNu-32" target="3j7t8abPpOjhpxrlUmNu-3" edge="1">
          <mxGeometry relative="1" as="geometry" />
        </mxCell>
        <mxCell id="3j7t8abPpOjhpxrlUmNu-32" value="LBS" style="rounded=1;whiteSpace=wrap;html=1;fillColor=#d5e8d4;strokeColor=#82b366;sketch=1;" parent="1" vertex="1">
          <mxGeometry x="190" y="197.5" width="50" height="65" as="geometry" />
        </mxCell>
        <mxCell id="3j7t8abPpOjhpxrlUmNu-38" value="控制层" style="rounded=1;whiteSpace=wrap;html=1;fillColor=#ffe6cc;strokeColor=#d79b00;sketch=1;" parent="1" vertex="1">
          <mxGeometry x="40" y="390" width="90" height="30" as="geometry" />
        </mxCell>
        <mxCell id="3j7t8abPpOjhpxrlUmNu-49" value="" style="rounded=1;whiteSpace=wrap;html=1;fillColor=#d5e8d4;strokeColor=#82b366;sketch=1;" parent="1" vertex="1">
          <mxGeometry x="155" y="375" width="495" height="60" as="geometry" />
        </mxCell>
        <mxCell id="3j7t8abPpOjhpxrlUmNu-50" value="Controller" style="text;html=1;strokeColor=none;fillColor=none;align=center;verticalAlign=middle;whiteSpace=wrap;rounded=0;sketch=1;" parent="1" vertex="1">
          <mxGeometry x="170" y="375" width="40" height="20" as="geometry" />
        </mxCell>
        <mxCell id="3j7t8abPpOjhpxrlUmNu-51" value="UserController" style="rounded=1;whiteSpace=wrap;html=1;fillColor=#ffe6cc;strokeColor=#d79b00;sketch=1;" parent="1" vertex="1">
          <mxGeometry x="190" y="395" width="90" height="30" as="geometry" />
        </mxCell>
        <mxCell id="3j7t8abPpOjhpxrlUmNu-52" value="AtuhContorller" style="rounded=1;whiteSpace=wrap;html=1;fillColor=#ffe6cc;strokeColor=#d79b00;sketch=1;" parent="1" vertex="1">
          <mxGeometry x="300" y="395" width="90" height="30" as="geometry" />
        </mxCell>
        <mxCell id="3j7t8abPpOjhpxrlUmNu-53" value="DataController" style="rounded=1;whiteSpace=wrap;html=1;fillColor=#ffe6cc;strokeColor=#d79b00;sketch=1;" parent="1" vertex="1">
          <mxGeometry x="410" y="395" width="90" height="30" as="geometry" />
        </mxCell>
        <mxCell id="3j7t8abPpOjhpxrlUmNu-54" value="TaskController" style="rounded=1;whiteSpace=wrap;html=1;fillColor=#ffe6cc;strokeColor=#d79b00;sketch=1;" parent="1" vertex="1">
          <mxGeometry x="530" y="395" width="90" height="30" as="geometry" />
        </mxCell>
        <mxCell id="3j7t8abPpOjhpxrlUmNu-55" value="服务层" style="rounded=1;whiteSpace=wrap;html=1;fillColor=#ffe6cc;strokeColor=#d79b00;sketch=1;" parent="1" vertex="1">
          <mxGeometry x="40" y="475" width="90" height="30" as="geometry" />
        </mxCell>
        <mxCell id="3j7t8abPpOjhpxrlUmNu-56" value="" style="rounded=1;whiteSpace=wrap;html=1;fillColor=#dae8fc;strokeColor=#6c8ebf;sketch=1;" parent="1" vertex="1">
          <mxGeometry x="150" y="460" width="495" height="60" as="geometry" />
        </mxCell>
        <mxCell id="3j7t8abPpOjhpxrlUmNu-57" value="Service" style="text;html=1;strokeColor=none;fillColor=none;align=center;verticalAlign=middle;whiteSpace=wrap;rounded=0;sketch=1;" parent="1" vertex="1">
          <mxGeometry x="160" y="460" width="40" height="20" as="geometry" />
        </mxCell>
        <mxCell id="3j7t8abPpOjhpxrlUmNu-58" value="UserService" style="rounded=1;whiteSpace=wrap;html=1;fillColor=#ffe6cc;strokeColor=#d79b00;sketch=1;" parent="1" vertex="1">
          <mxGeometry x="190" y="480" width="90" height="30" as="geometry" />
        </mxCell>
        <mxCell id="3j7t8abPpOjhpxrlUmNu-59" value="DataService" style="rounded=1;whiteSpace=wrap;html=1;fillColor=#ffe6cc;strokeColor=#d79b00;sketch=1;" parent="1" vertex="1">
          <mxGeometry x="305" y="480" width="90" height="30" as="geometry" />
        </mxCell>
        <mxCell id="3j7t8abPpOjhpxrlUmNu-60" value="CrawHandler" style="rounded=1;whiteSpace=wrap;html=1;fillColor=#ffe6cc;strokeColor=#d79b00;sketch=1;" parent="1" vertex="1">
          <mxGeometry x="420" y="480" width="90" height="30" as="geometry" />
        </mxCell>
        <mxCell id="3j7t8abPpOjhpxrlUmNu-61" value="任务调度" style="rounded=1;whiteSpace=wrap;html=1;fillColor=#ffe6cc;strokeColor=#d79b00;sketch=1;" parent="1" vertex="1">
          <mxGeometry x="40" y="570" width="90" height="30" as="geometry" />
        </mxCell>
        <mxCell id="3j7t8abPpOjhpxrlUmNu-62" value="" style="rounded=1;whiteSpace=wrap;html=1;fillColor=#dae8fc;strokeColor=#6c8ebf;sketch=1;" parent="1" vertex="1">
          <mxGeometry x="250" y="540" width="395" height="90" as="geometry" />
        </mxCell>
        <mxCell id="3j7t8abPpOjhpxrlUmNu-63" value="Handler" style="text;html=1;strokeColor=none;fillColor=none;align=center;verticalAlign=middle;whiteSpace=wrap;rounded=0;sketch=1;" parent="1" vertex="1">
          <mxGeometry x="265" y="540" width="40" height="20" as="geometry" />
        </mxCell>
        <mxCell id="3j7t8abPpOjhpxrlUmNu-64" value="运营商业务" style="rounded=1;whiteSpace=wrap;html=1;fillColor=#ffe6cc;strokeColor=#d79b00;sketch=1;" parent="1" vertex="1">
          <mxGeometry x="270" y="570" width="90" height="30" as="geometry" />
        </mxCell>
        <mxCell id="3j7t8abPpOjhpxrlUmNu-65" value="其他爬虫业务" style="rounded=1;whiteSpace=wrap;html=1;fillColor=#ffe6cc;strokeColor=#d79b00;sketch=1;" parent="1" vertex="1">
          <mxGeometry x="380" y="570" width="90" height="30" as="geometry" />
        </mxCell>
        <mxCell id="3j7t8abPpOjhpxrlUmNu-66" value="存储层" style="rounded=1;whiteSpace=wrap;html=1;fillColor=#ffe6cc;strokeColor=#d79b00;sketch=1;" parent="1" vertex="1">
          <mxGeometry x="40" y="670" width="90" height="30" as="geometry" />
        </mxCell>
        <mxCell id="3j7t8abPpOjhpxrlUmNu-67" value="" style="rounded=1;whiteSpace=wrap;html=1;fillColor=#f8cecc;strokeColor=#b85450;sketch=1;" parent="1" vertex="1">
          <mxGeometry x="140" y="655" width="495" height="60" as="geometry" />
        </mxCell>
        <mxCell id="3j7t8abPpOjhpxrlUmNu-68" value="DAO" style="text;html=1;strokeColor=none;fillColor=none;align=center;verticalAlign=middle;whiteSpace=wrap;rounded=0;sketch=1;" parent="1" vertex="1">
          <mxGeometry x="150" y="655" width="40" height="20" as="geometry" />
        </mxCell>
        <mxCell id="3j7t8abPpOjhpxrlUmNu-69" value="UserDao" style="rounded=1;whiteSpace=wrap;html=1;fillColor=#ffe6cc;strokeColor=#d79b00;sketch=1;" parent="1" vertex="1">
          <mxGeometry x="170" y="675" width="90" height="30" as="geometry" />
        </mxCell>
        <mxCell id="3j7t8abPpOjhpxrlUmNu-70" value="DataDao" style="rounded=1;whiteSpace=wrap;html=1;fillColor=#ffe6cc;strokeColor=#d79b00;sketch=1;" parent="1" vertex="1">
          <mxGeometry x="280" y="675" width="90" height="30" as="geometry" />
        </mxCell>
        <mxCell id="3j7t8abPpOjhpxrlUmNu-71" value="TaskDao" style="rounded=1;whiteSpace=wrap;html=1;fillColor=#ffe6cc;strokeColor=#d79b00;sketch=1;" parent="1" vertex="1">
          <mxGeometry x="402.5" y="675" width="90" height="30" as="geometry" />
        </mxCell>
        <mxCell id="3j7t8abPpOjhpxrlUmNu-72" value="DB" style="shape=cylinder3;whiteSpace=wrap;html=1;boundedLbl=1;backgroundOutline=1;size=15;sketch=1;" parent="1" vertex="1">
          <mxGeometry x="200" y="750" width="60" height="80" as="geometry" />
        </mxCell>
        <mxCell id="3j7t8abPpOjhpxrlUmNu-73" value="Redis" style="shape=cylinder3;whiteSpace=wrap;html=1;boundedLbl=1;backgroundOutline=1;size=15;sketch=1;" parent="1" vertex="1">
          <mxGeometry x="432.5" y="750" width="60" height="80" as="geometry" />
        </mxCell>
        <mxCell id="3j7t8abPpOjhpxrlUmNu-74" value="底层存储" style="rounded=1;whiteSpace=wrap;html=1;fillColor=#ffe6cc;strokeColor=#d79b00;sketch=1;" parent="1" vertex="1">
          <mxGeometry x="40" y="775" width="90" height="30" as="geometry" />
        </mxCell>
        <mxCell id="3j7t8abPpOjhpxrlUmNu-75" value="" style="rounded=1;whiteSpace=wrap;html=1;fillColor=#d5e8d4;strokeColor=#82b366;sketch=1;" parent="1" vertex="1">
          <mxGeometry x="840" y="270" width="190" height="240" as="geometry" />
        </mxCell>
        <mxCell id="3j7t8abPpOjhpxrlUmNu-76" value="爬虫能力" style="text;html=1;strokeColor=none;fillColor=none;align=center;verticalAlign=middle;whiteSpace=wrap;rounded=0;sketch=1;" parent="1" vertex="1">
          <mxGeometry x="860" y="280" width="60" height="20" as="geometry" />
        </mxCell>
        <mxCell id="3j7t8abPpOjhpxrlUmNu-77" value="运营商抓取" style="rounded=1;whiteSpace=wrap;html=1;sketch=1;" parent="1" vertex="1">
          <mxGeometry x="870" y="315" width="140" height="30" as="geometry" />
        </mxCell>
        <mxCell id="3j7t8abPpOjhpxrlUmNu-78" value="公积金抓取" style="rounded=1;whiteSpace=wrap;html=1;sketch=1;" parent="1" vertex="1">
          <mxGeometry x="870" y="360" width="140" height="30" as="geometry" />
        </mxCell>
        <mxCell id="3j7t8abPpOjhpxrlUmNu-79" value="征信抓取" style="rounded=1;whiteSpace=wrap;html=1;sketch=1;" parent="1" vertex="1">
          <mxGeometry x="870" y="405" width="140" height="30" as="geometry" />
        </mxCell>
        <mxCell id="3j7t8abPpOjhpxrlUmNu-80" value="信用卡抓取" style="rounded=1;whiteSpace=wrap;html=1;sketch=1;" parent="1" vertex="1">
          <mxGeometry x="870" y="450" width="140" height="30" as="geometry" />
        </mxCell>
        <mxCell id="3j7t8abPpOjhpxrlUmNu-81" value="" style="rounded=1;whiteSpace=wrap;html=1;fillColor=#dae8fc;strokeColor=#6c8ebf;sketch=1;" parent="1" vertex="1">
          <mxGeometry x="840" y="530" width="440" height="80" as="geometry" />
        </mxCell>
        <mxCell id="3j7t8abPpOjhpxrlUmNu-82" value="用户管理" style="text;html=1;strokeColor=none;fillColor=none;align=center;verticalAlign=middle;whiteSpace=wrap;rounded=0;sketch=1;" parent="1" vertex="1">
          <mxGeometry x="860" y="530" width="60" height="20" as="geometry" />
        </mxCell>
        <mxCell id="3j7t8abPpOjhpxrlUmNu-83" value="用户授权" style="rounded=1;whiteSpace=wrap;html=1;sketch=1;" parent="1" vertex="1">
          <mxGeometry x="860" y="560" width="80" height="30" as="geometry" />
        </mxCell>
        <mxCell id="3j7t8abPpOjhpxrlUmNu-84" value="业务管理" style="rounded=1;whiteSpace=wrap;html=1;sketch=1;" parent="1" vertex="1">
          <mxGeometry x="960" y="560" width="80" height="30" as="geometry" />
        </mxCell>
        <mxCell id="3j7t8abPpOjhpxrlUmNu-85" value="用户信息" style="rounded=1;whiteSpace=wrap;html=1;sketch=1;" parent="1" vertex="1">
          <mxGeometry x="1060" y="560" width="80" height="30" as="geometry" />
        </mxCell>
        <mxCell id="3j7t8abPpOjhpxrlUmNu-86" value="其他功能" style="rounded=1;whiteSpace=wrap;html=1;sketch=1;" parent="1" vertex="1">
          <mxGeometry x="1161" y="560" width="80" height="30" as="geometry" />
        </mxCell>
        <mxCell id="3j7t8abPpOjhpxrlUmNu-87" value="" style="rounded=1;whiteSpace=wrap;html=1;fillColor=#ffe6cc;strokeColor=#d79b00;sketch=1;" parent="1" vertex="1">
          <mxGeometry x="1060" y="270" width="190" height="240" as="geometry" />
        </mxCell>
        <mxCell id="3j7t8abPpOjhpxrlUmNu-88" value="数据报告" style="text;html=1;strokeColor=none;fillColor=none;align=center;verticalAlign=middle;whiteSpace=wrap;rounded=0;sketch=1;" parent="1" vertex="1">
          <mxGeometry x="1070" y="280" width="50" height="20" as="geometry" />
        </mxCell>
        <mxCell id="3j7t8abPpOjhpxrlUmNu-89" value="运营商报告" style="rounded=1;whiteSpace=wrap;html=1;sketch=1;" parent="1" vertex="1">
          <mxGeometry x="1085" y="315" width="140" height="30" as="geometry" />
        </mxCell>
        <mxCell id="3j7t8abPpOjhpxrlUmNu-90" value="信用卡账单" style="rounded=1;whiteSpace=wrap;html=1;sketch=1;" parent="1" vertex="1">
          <mxGeometry x="1085" y="375" width="140" height="30" as="geometry" />
        </mxCell>
        <mxCell id="3j7t8abPpOjhpxrlUmNu-91" value="其他数据报告" style="rounded=1;whiteSpace=wrap;html=1;sketch=1;" parent="1" vertex="1">
          <mxGeometry x="1085" y="430" width="140" height="30" as="geometry" />
        </mxCell>
        <mxCell id="3j7t8abPpOjhpxrlUmNu-93" value="爬虫业务架构" style="text;html=1;strokeColor=none;fillColor=none;align=center;verticalAlign=middle;whiteSpace=wrap;rounded=0;sketch=1;" parent="1" vertex="1">
          <mxGeometry x="827" y="225" width="100" height="20" as="geometry" />
        </mxCell>
        <mxCell id="3j7t8abPpOjhpxrlUmNu-100" style="edgeStyle=orthogonalEdgeStyle;rounded=0;orthogonalLoop=1;jettySize=auto;html=1;exitX=1;exitY=0.5;exitDx=0;exitDy=0;entryX=0;entryY=0.5;entryDx=0;entryDy=0;sketch=1;" parent="1" source="3j7t8abPpOjhpxrlUmNu-95" target="3j7t8abPpOjhpxrlUmNu-18" edge="1">
          <mxGeometry relative="1" as="geometry" />
        </mxCell>
        <mxCell id="3j7t8abPpOjhpxrlUmNu-95" value="前端H5" style="rounded=1;whiteSpace=wrap;html=1;fillColor=#fff2cc;strokeColor=#d6b656;sketch=1;" parent="1" vertex="1">
          <mxGeometry x="890" y="835" width="110" height="40" as="geometry" />
        </mxCell>
        <mxCell id="3j7t8abPpOjhpxrlUmNu-96" value="Mysql" style="shape=cylinder3;whiteSpace=wrap;html=1;boundedLbl=1;backgroundOutline=1;size=15;fillColor=#dae8fc;strokeColor=#6c8ebf;sketch=1;" parent="1" vertex="1">
          <mxGeometry x="1210" y="865" width="40" height="60" as="geometry" />
        </mxCell>
        <mxCell id="3j7t8abPpOjhpxrlUmNu-97" value="Redis" style="shape=cylinder3;whiteSpace=wrap;html=1;boundedLbl=1;backgroundOutline=1;size=15;fillColor=#ffe6cc;strokeColor=#d79b00;sketch=1;" parent="1" vertex="1">
          <mxGeometry x="1210" y="775" width="40" height="60" as="geometry" />
        </mxCell>
        <mxCell id="3j7t8abPpOjhpxrlUmNu-102" value="同一台物理机" style="text;html=1;strokeColor=none;fillColor=none;align=center;verticalAlign=middle;whiteSpace=wrap;rounded=0;sketch=1;" parent="1" vertex="1">
          <mxGeometry x="890" y="755" width="90" height="20" as="geometry" />
        </mxCell>
        <mxCell id="3j7t8abPpOjhpxrlUmNu-104" style="edgeStyle=orthogonalEdgeStyle;rounded=0;orthogonalLoop=1;jettySize=auto;html=1;exitX=1;exitY=0.5;exitDx=0;exitDy=0;entryX=0;entryY=0.5;entryDx=0;entryDy=0;sketch=1;" parent="1" source="3j7t8abPpOjhpxrlUmNu-103" target="3j7t8abPpOjhpxrlUmNu-95" edge="1">
          <mxGeometry relative="1" as="geometry" />
        </mxCell>
        <mxCell id="3j7t8abPpOjhpxrlUmNu-103" value="浏览器" style="rounded=1;whiteSpace=wrap;html=1;sketch=1;" parent="1" vertex="1">
          <mxGeometry x="700" y="825" width="120" height="60" as="geometry" />
        </mxCell>
        <mxCell id="3j7t8abPpOjhpxrlUmNu-105" value="浏览器" style="rounded=1;whiteSpace=wrap;html=1;sketch=1;" parent="1" vertex="1">
          <mxGeometry x="710" y="835" width="120" height="60" as="geometry" />
        </mxCell>
        <mxCell id="3j7t8abPpOjhpxrlUmNu-106" value="浏览器" style="rounded=1;whiteSpace=wrap;html=1;sketch=1;" parent="1" vertex="1">
          <mxGeometry x="720" y="845" width="120" height="60" as="geometry" />
        </mxCell>
        <mxCell id="3j7t8abPpOjhpxrlUmNu-125" style="edgeStyle=orthogonalEdgeStyle;rounded=0;orthogonalLoop=1;jettySize=auto;html=1;exitX=1;exitY=0.5;exitDx=0;exitDy=0;entryX=0;entryY=0;entryDx=0;entryDy=37.5;entryPerimeter=0;sketch=1;" parent="1" source="3j7t8abPpOjhpxrlUmNu-110" target="3j7t8abPpOjhpxrlUmNu-114" edge="1">
          <mxGeometry relative="1" as="geometry">
            <Array as="points">
              <mxPoint x="1240" y="1080" />
              <mxPoint x="1240" y="1158" />
            </Array>
          </mxGeometry>
        </mxCell>
        <mxCell id="3j7t8abPpOjhpxrlUmNu-126" style="edgeStyle=orthogonalEdgeStyle;rounded=0;orthogonalLoop=1;jettySize=auto;html=1;exitX=1;exitY=0.5;exitDx=0;exitDy=0;entryX=0;entryY=0.5;entryDx=0;entryDy=0;entryPerimeter=0;sketch=1;" parent="1" source="3j7t8abPpOjhpxrlUmNu-110" target="3j7t8abPpOjhpxrlUmNu-113" edge="1">
          <mxGeometry relative="1" as="geometry">
            <Array as="points">
              <mxPoint x="1240" y="1080" />
              <mxPoint x="1240" y="1240" />
            </Array>
          </mxGeometry>
        </mxCell>
        <mxCell id="3j7t8abPpOjhpxrlUmNu-143" style="edgeStyle=orthogonalEdgeStyle;rounded=0;orthogonalLoop=1;jettySize=auto;html=1;exitX=0.5;exitY=1;exitDx=0;exitDy=0;entryX=0.5;entryY=0;entryDx=0;entryDy=0;startArrow=classic;startFill=1;sketch=1;" parent="1" source="3j7t8abPpOjhpxrlUmNu-110" target="3j7t8abPpOjhpxrlUmNu-121" edge="1">
          <mxGeometry relative="1" as="geometry" />
        </mxCell>
        <mxCell id="3j7t8abPpOjhpxrlUmNu-110" value="秒杀服务" style="rounded=1;whiteSpace=wrap;html=1;fillColor=#dae8fc;strokeColor=#6c8ebf;sketch=1;" parent="1" vertex="1">
          <mxGeometry x="1070" y="1060" width="110" height="40" as="geometry" />
        </mxCell>
        <mxCell id="3j7t8abPpOjhpxrlUmNu-113" value="Mysql" style="shape=cylinder3;whiteSpace=wrap;html=1;boundedLbl=1;backgroundOutline=1;size=15;fillColor=#dae8fc;strokeColor=#6c8ebf;sketch=1;" parent="1" vertex="1">
          <mxGeometry x="1310" y="1210" width="40" height="60" as="geometry" />
        </mxCell>
        <mxCell id="3j7t8abPpOjhpxrlUmNu-114" value="Redis" style="shape=cylinder3;whiteSpace=wrap;html=1;boundedLbl=1;backgroundOutline=1;size=15;fillColor=#ffe6cc;strokeColor=#d79b00;sketch=1;" parent="1" vertex="1">
          <mxGeometry x="1310" y="1120" width="40" height="60" as="geometry" />
        </mxCell>
        <mxCell id="3j7t8abPpOjhpxrlUmNu-116" style="edgeStyle=orthogonalEdgeStyle;rounded=0;orthogonalLoop=1;jettySize=auto;html=1;exitX=1;exitY=0.5;exitDx=0;exitDy=0;entryX=0;entryY=0.5;entryDx=0;entryDy=0;sketch=1;" parent="1" source="3j7t8abPpOjhpxrlUmNu-117" edge="1">
          <mxGeometry relative="1" as="geometry">
            <mxPoint x="810" y="1180" as="targetPoint" />
          </mxGeometry>
        </mxCell>
        <mxCell id="3j7t8abPpOjhpxrlUmNu-117" value="浏览器" style="rounded=1;whiteSpace=wrap;html=1;sketch=1;" parent="1" vertex="1">
          <mxGeometry x="620" y="1150" width="120" height="60" as="geometry" />
        </mxCell>
        <mxCell id="3j7t8abPpOjhpxrlUmNu-118" value="浏览器" style="rounded=1;whiteSpace=wrap;html=1;sketch=1;" parent="1" vertex="1">
          <mxGeometry x="630" y="1160" width="120" height="60" as="geometry" />
        </mxCell>
        <mxCell id="3j7t8abPpOjhpxrlUmNu-119" value="浏览器" style="rounded=1;whiteSpace=wrap;html=1;sketch=1;" parent="1" vertex="1">
          <mxGeometry x="640" y="1170" width="120" height="60" as="geometry" />
        </mxCell>
        <mxCell id="3j7t8abPpOjhpxrlUmNu-127" style="edgeStyle=orthogonalEdgeStyle;rounded=0;orthogonalLoop=1;jettySize=auto;html=1;exitX=1;exitY=0.5;exitDx=0;exitDy=0;entryX=0;entryY=0;entryDx=0;entryDy=37.5;entryPerimeter=0;sketch=1;" parent="1" source="3j7t8abPpOjhpxrlUmNu-121" target="3j7t8abPpOjhpxrlUmNu-114" edge="1">
          <mxGeometry relative="1" as="geometry">
            <Array as="points">
              <mxPoint x="1240" y="1135" />
              <mxPoint x="1240" y="1158" />
            </Array>
          </mxGeometry>
        </mxCell>
        <mxCell id="3j7t8abPpOjhpxrlUmNu-144" style="edgeStyle=orthogonalEdgeStyle;rounded=0;orthogonalLoop=1;jettySize=auto;html=1;exitX=0.5;exitY=1;exitDx=0;exitDy=0;entryX=0.5;entryY=0;entryDx=0;entryDy=0;startArrow=classic;startFill=1;sketch=1;" parent="1" source="3j7t8abPpOjhpxrlUmNu-121" target="3j7t8abPpOjhpxrlUmNu-122" edge="1">
          <mxGeometry relative="1" as="geometry" />
        </mxCell>
        <mxCell id="3j7t8abPpOjhpxrlUmNu-121" value="商品服务" style="rounded=1;whiteSpace=wrap;html=1;fillColor=#dae8fc;strokeColor=#6c8ebf;sketch=1;" parent="1" vertex="1">
          <mxGeometry x="1070" y="1115" width="110" height="40" as="geometry" />
        </mxCell>
        <mxCell id="3j7t8abPpOjhpxrlUmNu-128" style="edgeStyle=orthogonalEdgeStyle;rounded=0;orthogonalLoop=1;jettySize=auto;html=1;exitX=1;exitY=0.5;exitDx=0;exitDy=0;entryX=0;entryY=0.5;entryDx=0;entryDy=0;entryPerimeter=0;sketch=1;" parent="1" source="3j7t8abPpOjhpxrlUmNu-122" target="3j7t8abPpOjhpxrlUmNu-113" edge="1">
          <mxGeometry relative="1" as="geometry">
            <Array as="points">
              <mxPoint x="1240" y="1190" />
              <mxPoint x="1240" y="1240" />
            </Array>
          </mxGeometry>
        </mxCell>
        <mxCell id="3j7t8abPpOjhpxrlUmNu-145" style="edgeStyle=orthogonalEdgeStyle;rounded=0;orthogonalLoop=1;jettySize=auto;html=1;exitX=0.5;exitY=1;exitDx=0;exitDy=0;entryX=0.5;entryY=0;entryDx=0;entryDy=0;startArrow=classic;startFill=1;sketch=1;" parent="1" source="3j7t8abPpOjhpxrlUmNu-122" target="3j7t8abPpOjhpxrlUmNu-123" edge="1">
          <mxGeometry relative="1" as="geometry" />
        </mxCell>
        <mxCell id="3j7t8abPpOjhpxrlUmNu-122" value="订单服务" style="rounded=1;whiteSpace=wrap;html=1;fillColor=#dae8fc;strokeColor=#6c8ebf;sketch=1;" parent="1" vertex="1">
          <mxGeometry x="1070" y="1170" width="110" height="40" as="geometry" />
        </mxCell>
        <mxCell id="3j7t8abPpOjhpxrlUmNu-129" style="edgeStyle=orthogonalEdgeStyle;rounded=0;orthogonalLoop=1;jettySize=auto;html=1;exitX=1;exitY=0.5;exitDx=0;exitDy=0;sketch=1;" parent="1" source="3j7t8abPpOjhpxrlUmNu-123" edge="1">
          <mxGeometry relative="1" as="geometry">
            <mxPoint x="1310" y="1240" as="targetPoint" />
            <Array as="points">
              <mxPoint x="1240" y="1250" />
              <mxPoint x="1240" y="1240" />
            </Array>
          </mxGeometry>
        </mxCell>
        <mxCell id="3j7t8abPpOjhpxrlUmNu-146" style="edgeStyle=orthogonalEdgeStyle;rounded=0;orthogonalLoop=1;jettySize=auto;html=1;exitX=0.5;exitY=1;exitDx=0;exitDy=0;entryX=0.5;entryY=0;entryDx=0;entryDy=0;startArrow=classic;startFill=1;sketch=1;" parent="1" source="3j7t8abPpOjhpxrlUmNu-123" target="3j7t8abPpOjhpxrlUmNu-124" edge="1">
          <mxGeometry relative="1" as="geometry" />
        </mxCell>
        <mxCell id="3j7t8abPpOjhpxrlUmNu-123" value="用户服务" style="rounded=1;whiteSpace=wrap;html=1;fillColor=#dae8fc;strokeColor=#6c8ebf;sketch=1;" parent="1" vertex="1">
          <mxGeometry x="1070" y="1230" width="110" height="40" as="geometry" />
        </mxCell>
        <mxCell id="3j7t8abPpOjhpxrlUmNu-130" style="edgeStyle=orthogonalEdgeStyle;rounded=0;orthogonalLoop=1;jettySize=auto;html=1;exitX=1;exitY=0.5;exitDx=0;exitDy=0;sketch=1;" parent="1" source="3j7t8abPpOjhpxrlUmNu-124" edge="1">
          <mxGeometry relative="1" as="geometry">
            <mxPoint x="1310" y="1240" as="targetPoint" />
            <Array as="points">
              <mxPoint x="1240" y="1310" />
              <mxPoint x="1240" y="1240" />
            </Array>
          </mxGeometry>
        </mxCell>
        <mxCell id="3j7t8abPpOjhpxrlUmNu-124" value="评论服务" style="rounded=1;whiteSpace=wrap;html=1;fillColor=#dae8fc;strokeColor=#6c8ebf;sketch=1;" parent="1" vertex="1">
          <mxGeometry x="1070" y="1290" width="110" height="40" as="geometry" />
        </mxCell>
        <mxCell id="3j7t8abPpOjhpxrlUmNu-132" value="Nginx" style="rounded=1;whiteSpace=wrap;html=1;fillColor=#d5e8d4;strokeColor=#82b366;sketch=1;" parent="1" vertex="1">
          <mxGeometry x="980" y="1050" width="50" height="280" as="geometry" />
        </mxCell>
        <mxCell id="3j7t8abPpOjhpxrlUmNu-133" value="" style="endArrow=classic;html=1;entryX=0;entryY=0.5;entryDx=0;entryDy=0;exitX=1.04;exitY=0.107;exitDx=0;exitDy=0;exitPerimeter=0;sketch=1;" parent="1" source="3j7t8abPpOjhpxrlUmNu-132" target="3j7t8abPpOjhpxrlUmNu-110" edge="1">
          <mxGeometry width="50" height="50" relative="1" as="geometry">
            <mxPoint x="920" y="1110" as="sourcePoint" />
            <mxPoint x="970" y="1060" as="targetPoint" />
          </mxGeometry>
        </mxCell>
        <mxCell id="3j7t8abPpOjhpxrlUmNu-134" value="" style="endArrow=classic;html=1;entryX=0;entryY=0.5;entryDx=0;entryDy=0;exitX=1.04;exitY=0.107;exitDx=0;exitDy=0;exitPerimeter=0;sketch=1;" parent="1" edge="1">
          <mxGeometry width="50" height="50" relative="1" as="geometry">
            <mxPoint x="1032" y="1134.5" as="sourcePoint" />
            <mxPoint x="1070" y="1134.54" as="targetPoint" />
          </mxGeometry>
        </mxCell>
        <mxCell id="3j7t8abPpOjhpxrlUmNu-135" value="" style="endArrow=classic;html=1;entryX=0;entryY=0.5;entryDx=0;entryDy=0;exitX=1.04;exitY=0.107;exitDx=0;exitDy=0;exitPerimeter=0;sketch=1;" parent="1" edge="1">
          <mxGeometry width="50" height="50" relative="1" as="geometry">
            <mxPoint x="1032" y="1189.5" as="sourcePoint" />
            <mxPoint x="1070" y="1189.54" as="targetPoint" />
          </mxGeometry>
        </mxCell>
        <mxCell id="3j7t8abPpOjhpxrlUmNu-136" value="" style="endArrow=classic;html=1;entryX=0;entryY=0.5;entryDx=0;entryDy=0;exitX=1.04;exitY=0.107;exitDx=0;exitDy=0;exitPerimeter=0;sketch=1;" parent="1" edge="1">
          <mxGeometry width="50" height="50" relative="1" as="geometry">
            <mxPoint x="1032" y="1250" as="sourcePoint" />
            <mxPoint x="1070" y="1250.04" as="targetPoint" />
          </mxGeometry>
        </mxCell>
        <mxCell id="3j7t8abPpOjhpxrlUmNu-137" value="" style="endArrow=classic;html=1;entryX=0;entryY=0.5;entryDx=0;entryDy=0;exitX=1.04;exitY=0.107;exitDx=0;exitDy=0;exitPerimeter=0;sketch=1;" parent="1" edge="1">
          <mxGeometry width="50" height="50" relative="1" as="geometry">
            <mxPoint x="1030" y="1309.5" as="sourcePoint" />
            <mxPoint x="1068" y="1309.54" as="targetPoint" />
          </mxGeometry>
        </mxCell>
        <mxCell id="3j7t8abPpOjhpxrlUmNu-148" style="edgeStyle=orthogonalEdgeStyle;rounded=0;orthogonalLoop=1;jettySize=auto;html=1;exitX=0.5;exitY=1;exitDx=0;exitDy=0;entryX=0.5;entryY=0;entryDx=0;entryDy=0;startArrow=none;startFill=0;sketch=1;" parent="1" source="3j7t8abPpOjhpxrlUmNu-138" target="3j7t8abPpOjhpxrlUmNu-147" edge="1">
          <mxGeometry relative="1" as="geometry" />
        </mxCell>
        <mxCell id="3j7t8abPpOjhpxrlUmNu-138" value="前端H5" style="rounded=1;whiteSpace=wrap;html=1;fillColor=#fff2cc;strokeColor=#d6b656;sketch=1;" parent="1" vertex="1">
          <mxGeometry x="810" y="1160" width="110" height="40" as="geometry" />
        </mxCell>
        <mxCell id="3j7t8abPpOjhpxrlUmNu-140" value="" style="endArrow=classic;html=1;entryX=-0.02;entryY=0.471;entryDx=0;entryDy=0;exitX=1.04;exitY=0.107;exitDx=0;exitDy=0;exitPerimeter=0;entryPerimeter=0;sketch=1;" parent="1" target="3j7t8abPpOjhpxrlUmNu-132" edge="1">
          <mxGeometry width="50" height="50" relative="1" as="geometry">
            <mxPoint x="921" y="1180" as="sourcePoint" />
            <mxPoint x="959" y="1180.04" as="targetPoint" />
          </mxGeometry>
        </mxCell>
        <mxCell id="3j7t8abPpOjhpxrlUmNu-142" value="ZooKeeper/Nacos" style="rounded=1;whiteSpace=wrap;html=1;fillColor=#e1d5e7;strokeColor=#9673a6;sketch=1;" parent="1" vertex="1">
          <mxGeometry x="1320" y="1590" width="200" height="40" as="geometry" />
        </mxCell>
        <mxCell id="3j7t8abPpOjhpxrlUmNu-147" value="CDN" style="rounded=1;whiteSpace=wrap;html=1;fillColor=#ffe6cc;strokeColor=#d79b00;sketch=1;" parent="1" vertex="1">
          <mxGeometry x="805" y="1260" width="120" height="60" as="geometry" />
        </mxCell>
        <mxCell id="4LqL1sIL9XcWVo5Jq6jh-1" value="Productor" style="rounded=1;whiteSpace=wrap;html=1;fillColor=#fff2cc;strokeColor=#d6b656;sketch=1;" vertex="1" parent="1">
          <mxGeometry x="720" y="1520" width="110" height="40" as="geometry" />
        </mxCell>
        <mxCell id="4LqL1sIL9XcWVo5Jq6jh-2" value="Comsumer" style="rounded=1;whiteSpace=wrap;html=1;fillColor=#fff2cc;strokeColor=#d6b656;sketch=1;" vertex="1" parent="1">
          <mxGeometry x="1005" y="1520" width="110" height="40" as="geometry" />
        </mxCell>
        <mxCell id="4LqL1sIL9XcWVo5Jq6jh-3" value="Regisiter" style="rounded=1;whiteSpace=wrap;html=1;fillColor=#fff2cc;strokeColor=#d6b656;sketch=1;" vertex="1" parent="1">
          <mxGeometry x="860" y="1440" width="110" height="40" as="geometry" />
        </mxCell>
        <mxCell id="4LqL1sIL9XcWVo5Jq6jh-8" style="edgeStyle=orthogonalEdgeStyle;rounded=0;orthogonalLoop=1;jettySize=auto;html=1;exitX=0.5;exitY=1;exitDx=0;exitDy=0;entryX=0;entryY=0.5;entryDx=0;entryDy=0;sketch=1;" edge="1" parent="1" source="4LqL1sIL9XcWVo5Jq6jh-4" target="3j7t8abPpOjhpxrlUmNu-142">
          <mxGeometry relative="1" as="geometry" />
        </mxCell>
        <mxCell id="4LqL1sIL9XcWVo5Jq6jh-12" value="服务注册" style="edgeLabel;html=1;align=center;verticalAlign=middle;resizable=0;points=[];sketch=1;" vertex="1" connectable="0" parent="4LqL1sIL9XcWVo5Jq6jh-8">
          <mxGeometry x="0.3506" y="-2" relative="1" as="geometry">
            <mxPoint as="offset" />
          </mxGeometry>
        </mxCell>
        <mxCell id="4LqL1sIL9XcWVo5Jq6jh-13" style="edgeStyle=orthogonalEdgeStyle;rounded=0;orthogonalLoop=1;jettySize=auto;html=1;exitX=1;exitY=0.5;exitDx=0;exitDy=0;entryX=0;entryY=0.5;entryDx=0;entryDy=0;sketch=1;" edge="1" parent="1" source="4LqL1sIL9XcWVo5Jq6jh-4" target="4LqL1sIL9XcWVo5Jq6jh-5">
          <mxGeometry relative="1" as="geometry" />
        </mxCell>
        <mxCell id="4LqL1sIL9XcWVo5Jq6jh-14" style="edgeStyle=orthogonalEdgeStyle;rounded=0;orthogonalLoop=1;jettySize=auto;html=1;exitX=1;exitY=0.5;exitDx=0;exitDy=0;entryX=0;entryY=0.5;entryDx=0;entryDy=0;sketch=1;" edge="1" parent="1" source="4LqL1sIL9XcWVo5Jq6jh-4" target="4LqL1sIL9XcWVo5Jq6jh-6">
          <mxGeometry relative="1" as="geometry" />
        </mxCell>
        <mxCell id="4LqL1sIL9XcWVo5Jq6jh-15" style="edgeStyle=orthogonalEdgeStyle;rounded=0;orthogonalLoop=1;jettySize=auto;html=1;exitX=1;exitY=0.5;exitDx=0;exitDy=0;entryX=0;entryY=0.5;entryDx=0;entryDy=0;sketch=1;" edge="1" parent="1" source="4LqL1sIL9XcWVo5Jq6jh-4" target="4LqL1sIL9XcWVo5Jq6jh-7">
          <mxGeometry relative="1" as="geometry" />
        </mxCell>
        <mxCell id="4LqL1sIL9XcWVo5Jq6jh-16" value="服务调用" style="edgeLabel;html=1;align=center;verticalAlign=middle;resizable=0;points=[];sketch=1;" vertex="1" connectable="0" parent="4LqL1sIL9XcWVo5Jq6jh-15">
          <mxGeometry x="-0.6983" relative="1" as="geometry">
            <mxPoint x="22" as="offset" />
          </mxGeometry>
        </mxCell>
        <mxCell id="4LqL1sIL9XcWVo5Jq6jh-4" value="订单服务" style="rounded=1;whiteSpace=wrap;html=1;fillColor=#dae8fc;strokeColor=#6c8ebf;sketch=1;" vertex="1" parent="1">
          <mxGeometry x="1241" y="1440" width="110" height="40" as="geometry" />
        </mxCell>
        <mxCell id="4LqL1sIL9XcWVo5Jq6jh-10" style="edgeStyle=orthogonalEdgeStyle;rounded=0;orthogonalLoop=1;jettySize=auto;html=1;exitX=1;exitY=0.5;exitDx=0;exitDy=0;sketch=1;" edge="1" parent="1" source="4LqL1sIL9XcWVo5Jq6jh-5">
          <mxGeometry relative="1" as="geometry">
            <mxPoint x="1520" y="1610" as="targetPoint" />
            <Array as="points">
              <mxPoint x="1590" y="1460" />
              <mxPoint x="1590" y="1610" />
            </Array>
          </mxGeometry>
        </mxCell>
        <mxCell id="4LqL1sIL9XcWVo5Jq6jh-5" value="用户服务" style="rounded=1;whiteSpace=wrap;html=1;fillColor=#dae8fc;strokeColor=#6c8ebf;sketch=1;" vertex="1" parent="1">
          <mxGeometry x="1460" y="1440" width="110" height="40" as="geometry" />
        </mxCell>
        <mxCell id="4LqL1sIL9XcWVo5Jq6jh-9" style="edgeStyle=orthogonalEdgeStyle;rounded=0;orthogonalLoop=1;jettySize=auto;html=1;exitX=1;exitY=0.5;exitDx=0;exitDy=0;entryX=1;entryY=0.5;entryDx=0;entryDy=0;sketch=1;" edge="1" parent="1" source="4LqL1sIL9XcWVo5Jq6jh-6" target="3j7t8abPpOjhpxrlUmNu-142">
          <mxGeometry relative="1" as="geometry" />
        </mxCell>
        <mxCell id="4LqL1sIL9XcWVo5Jq6jh-6" value="商品服务" style="rounded=1;whiteSpace=wrap;html=1;fillColor=#dae8fc;strokeColor=#6c8ebf;sketch=1;" vertex="1" parent="1">
          <mxGeometry x="1460" y="1370" width="110" height="40" as="geometry" />
        </mxCell>
        <mxCell id="4LqL1sIL9XcWVo5Jq6jh-11" value="服务注册" style="edgeStyle=orthogonalEdgeStyle;rounded=0;orthogonalLoop=1;jettySize=auto;html=1;exitX=1;exitY=0.5;exitDx=0;exitDy=0;entryX=1;entryY=0.5;entryDx=0;entryDy=0;sketch=1;" edge="1" parent="1" source="4LqL1sIL9XcWVo5Jq6jh-7" target="3j7t8abPpOjhpxrlUmNu-142">
          <mxGeometry relative="1" as="geometry" />
        </mxCell>
        <mxCell id="4LqL1sIL9XcWVo5Jq6jh-7" value="支付服务" style="rounded=1;whiteSpace=wrap;html=1;fillColor=#dae8fc;strokeColor=#6c8ebf;sketch=1;" vertex="1" parent="1">
          <mxGeometry x="1460" y="1510" width="110" height="40" as="geometry" />
        </mxCell>
        <mxCell id="4LqL1sIL9XcWVo5Jq6jh-17" value="ZooKeeper/Nacos" style="rounded=1;whiteSpace=wrap;html=1;fillColor=#e1d5e7;strokeColor=#9673a6;sketch=1;" vertex="1" parent="1">
          <mxGeometry x="1005" y="990" width="200" height="40" as="geometry" />
        </mxCell>
        <mxCell id="4LqL1sIL9XcWVo5Jq6jh-18" style="edgeStyle=orthogonalEdgeStyle;rounded=0;orthogonalLoop=1;jettySize=auto;html=1;exitX=1;exitY=0.5;exitDx=0;exitDy=0;entryX=0;entryY=0;entryDx=0;entryDy=37.5;entryPerimeter=0;sketch=1;" edge="1" source="4LqL1sIL9XcWVo5Jq6jh-21" target="4LqL1sIL9XcWVo5Jq6jh-23" parent="1">
          <mxGeometry relative="1" as="geometry">
            <Array as="points">
              <mxPoint x="2150" y="910" />
              <mxPoint x="2150" y="988" />
            </Array>
          </mxGeometry>
        </mxCell>
        <mxCell id="4LqL1sIL9XcWVo5Jq6jh-19" style="edgeStyle=orthogonalEdgeStyle;rounded=0;orthogonalLoop=1;jettySize=auto;html=1;exitX=1;exitY=0.5;exitDx=0;exitDy=0;entryX=0;entryY=0.5;entryDx=0;entryDy=0;entryPerimeter=0;sketch=1;" edge="1" source="4LqL1sIL9XcWVo5Jq6jh-21" target="4LqL1sIL9XcWVo5Jq6jh-22" parent="1">
          <mxGeometry relative="1" as="geometry">
            <Array as="points">
              <mxPoint x="2150" y="910" />
              <mxPoint x="2150" y="1070" />
            </Array>
          </mxGeometry>
        </mxCell>
        <mxCell id="4LqL1sIL9XcWVo5Jq6jh-20" style="edgeStyle=orthogonalEdgeStyle;rounded=0;orthogonalLoop=1;jettySize=auto;html=1;exitX=0.5;exitY=1;exitDx=0;exitDy=0;entryX=0.5;entryY=0;entryDx=0;entryDy=0;startArrow=classic;startFill=1;sketch=1;" edge="1" source="4LqL1sIL9XcWVo5Jq6jh-21" target="4LqL1sIL9XcWVo5Jq6jh-30" parent="1">
          <mxGeometry relative="1" as="geometry" />
        </mxCell>
        <mxCell id="4LqL1sIL9XcWVo5Jq6jh-21" value="秒杀服务" style="rounded=1;whiteSpace=wrap;html=1;fillColor=#dae8fc;strokeColor=#6c8ebf;sketch=1;" vertex="1" parent="1">
          <mxGeometry x="1980" y="890" width="110" height="40" as="geometry" />
        </mxCell>
        <mxCell id="4LqL1sIL9XcWVo5Jq6jh-22" value="Mysql" style="shape=cylinder3;whiteSpace=wrap;html=1;boundedLbl=1;backgroundOutline=1;size=15;fillColor=#dae8fc;strokeColor=#6c8ebf;sketch=1;" vertex="1" parent="1">
          <mxGeometry x="2220" y="1040" width="40" height="60" as="geometry" />
        </mxCell>
        <mxCell id="4LqL1sIL9XcWVo5Jq6jh-23" value="Redis" style="shape=cylinder3;whiteSpace=wrap;html=1;boundedLbl=1;backgroundOutline=1;size=15;fillColor=#ffe6cc;strokeColor=#d79b00;sketch=1;" vertex="1" parent="1">
          <mxGeometry x="2220" y="950" width="40" height="60" as="geometry" />
        </mxCell>
        <mxCell id="4LqL1sIL9XcWVo5Jq6jh-28" style="edgeStyle=orthogonalEdgeStyle;rounded=0;orthogonalLoop=1;jettySize=auto;html=1;exitX=1;exitY=0.5;exitDx=0;exitDy=0;entryX=0;entryY=0;entryDx=0;entryDy=37.5;entryPerimeter=0;sketch=1;" edge="1" source="4LqL1sIL9XcWVo5Jq6jh-30" target="4LqL1sIL9XcWVo5Jq6jh-23" parent="1">
          <mxGeometry relative="1" as="geometry">
            <Array as="points">
              <mxPoint x="2150" y="965" />
              <mxPoint x="2150" y="988" />
            </Array>
          </mxGeometry>
        </mxCell>
        <mxCell id="4LqL1sIL9XcWVo5Jq6jh-29" style="edgeStyle=orthogonalEdgeStyle;rounded=0;orthogonalLoop=1;jettySize=auto;html=1;exitX=0.5;exitY=1;exitDx=0;exitDy=0;entryX=0.5;entryY=0;entryDx=0;entryDy=0;startArrow=classic;startFill=1;sketch=1;" edge="1" source="4LqL1sIL9XcWVo5Jq6jh-30" target="4LqL1sIL9XcWVo5Jq6jh-33" parent="1">
          <mxGeometry relative="1" as="geometry" />
        </mxCell>
        <mxCell id="4LqL1sIL9XcWVo5Jq6jh-30" value="商品服务" style="rounded=1;whiteSpace=wrap;html=1;fillColor=#dae8fc;strokeColor=#6c8ebf;sketch=1;" vertex="1" parent="1">
          <mxGeometry x="1980" y="945" width="110" height="40" as="geometry" />
        </mxCell>
        <mxCell id="4LqL1sIL9XcWVo5Jq6jh-31" style="edgeStyle=orthogonalEdgeStyle;rounded=0;orthogonalLoop=1;jettySize=auto;html=1;exitX=1;exitY=0.5;exitDx=0;exitDy=0;entryX=0;entryY=0.5;entryDx=0;entryDy=0;entryPerimeter=0;sketch=1;" edge="1" source="4LqL1sIL9XcWVo5Jq6jh-33" target="4LqL1sIL9XcWVo5Jq6jh-22" parent="1">
          <mxGeometry relative="1" as="geometry">
            <Array as="points">
              <mxPoint x="2150" y="1020" />
              <mxPoint x="2150" y="1070" />
            </Array>
          </mxGeometry>
        </mxCell>
        <mxCell id="4LqL1sIL9XcWVo5Jq6jh-32" style="edgeStyle=orthogonalEdgeStyle;rounded=0;orthogonalLoop=1;jettySize=auto;html=1;exitX=0.5;exitY=1;exitDx=0;exitDy=0;entryX=0.5;entryY=0;entryDx=0;entryDy=0;startArrow=classic;startFill=1;sketch=1;" edge="1" source="4LqL1sIL9XcWVo5Jq6jh-33" target="4LqL1sIL9XcWVo5Jq6jh-36" parent="1">
          <mxGeometry relative="1" as="geometry" />
        </mxCell>
        <mxCell id="4LqL1sIL9XcWVo5Jq6jh-33" value="订单服务" style="rounded=1;whiteSpace=wrap;html=1;fillColor=#dae8fc;strokeColor=#6c8ebf;sketch=1;" vertex="1" parent="1">
          <mxGeometry x="1980" y="1000" width="110" height="40" as="geometry" />
        </mxCell>
        <mxCell id="4LqL1sIL9XcWVo5Jq6jh-34" style="edgeStyle=orthogonalEdgeStyle;rounded=0;orthogonalLoop=1;jettySize=auto;html=1;exitX=1;exitY=0.5;exitDx=0;exitDy=0;sketch=1;" edge="1" source="4LqL1sIL9XcWVo5Jq6jh-36" parent="1">
          <mxGeometry relative="1" as="geometry">
            <mxPoint x="2220" y="1070" as="targetPoint" />
            <Array as="points">
              <mxPoint x="2150" y="1080" />
              <mxPoint x="2150" y="1070" />
            </Array>
          </mxGeometry>
        </mxCell>
        <mxCell id="4LqL1sIL9XcWVo5Jq6jh-35" style="edgeStyle=orthogonalEdgeStyle;rounded=0;orthogonalLoop=1;jettySize=auto;html=1;exitX=0.5;exitY=1;exitDx=0;exitDy=0;entryX=0.5;entryY=0;entryDx=0;entryDy=0;startArrow=classic;startFill=1;sketch=1;" edge="1" source="4LqL1sIL9XcWVo5Jq6jh-36" target="4LqL1sIL9XcWVo5Jq6jh-38" parent="1">
          <mxGeometry relative="1" as="geometry" />
        </mxCell>
        <mxCell id="4LqL1sIL9XcWVo5Jq6jh-36" value="用户服务" style="rounded=1;whiteSpace=wrap;html=1;fillColor=#dae8fc;strokeColor=#6c8ebf;sketch=1;" vertex="1" parent="1">
          <mxGeometry x="1980" y="1060" width="110" height="40" as="geometry" />
        </mxCell>
        <mxCell id="4LqL1sIL9XcWVo5Jq6jh-37" style="edgeStyle=orthogonalEdgeStyle;rounded=0;orthogonalLoop=1;jettySize=auto;html=1;exitX=1;exitY=0.5;exitDx=0;exitDy=0;sketch=1;" edge="1" source="4LqL1sIL9XcWVo5Jq6jh-38" parent="1">
          <mxGeometry relative="1" as="geometry">
            <mxPoint x="2220" y="1070" as="targetPoint" />
            <Array as="points">
              <mxPoint x="2150" y="1140" />
              <mxPoint x="2150" y="1070" />
            </Array>
          </mxGeometry>
        </mxCell>
        <mxCell id="4LqL1sIL9XcWVo5Jq6jh-38" value="评论服务" style="rounded=1;whiteSpace=wrap;html=1;fillColor=#dae8fc;strokeColor=#6c8ebf;sketch=1;" vertex="1" parent="1">
          <mxGeometry x="1980" y="1120" width="110" height="40" as="geometry" />
        </mxCell>
        <mxCell id="4LqL1sIL9XcWVo5Jq6jh-39" value="Nginx" style="rounded=1;whiteSpace=wrap;html=1;fillColor=#d5e8d4;strokeColor=#82b366;sketch=1;" vertex="1" parent="1">
          <mxGeometry x="1890" y="880" width="50" height="280" as="geometry" />
        </mxCell>
        <mxCell id="4LqL1sIL9XcWVo5Jq6jh-40" value="" style="endArrow=classic;html=1;entryX=0;entryY=0.5;entryDx=0;entryDy=0;exitX=1.04;exitY=0.107;exitDx=0;exitDy=0;exitPerimeter=0;sketch=1;" edge="1" source="4LqL1sIL9XcWVo5Jq6jh-39" target="4LqL1sIL9XcWVo5Jq6jh-21" parent="1">
          <mxGeometry width="50" height="50" relative="1" as="geometry">
            <mxPoint x="1830" y="940" as="sourcePoint" />
            <mxPoint x="1880" y="890" as="targetPoint" />
          </mxGeometry>
        </mxCell>
        <mxCell id="4LqL1sIL9XcWVo5Jq6jh-41" value="" style="endArrow=classic;html=1;entryX=0;entryY=0.5;entryDx=0;entryDy=0;exitX=1.04;exitY=0.107;exitDx=0;exitDy=0;exitPerimeter=0;sketch=1;" edge="1" parent="1">
          <mxGeometry width="50" height="50" relative="1" as="geometry">
            <mxPoint x="1942" y="964.5" as="sourcePoint" />
            <mxPoint x="1980" y="964.54" as="targetPoint" />
          </mxGeometry>
        </mxCell>
        <mxCell id="4LqL1sIL9XcWVo5Jq6jh-42" value="" style="endArrow=classic;html=1;entryX=0;entryY=0.5;entryDx=0;entryDy=0;exitX=1.04;exitY=0.107;exitDx=0;exitDy=0;exitPerimeter=0;sketch=1;" edge="1" parent="1">
          <mxGeometry width="50" height="50" relative="1" as="geometry">
            <mxPoint x="1942" y="1019.5" as="sourcePoint" />
            <mxPoint x="1980" y="1019.54" as="targetPoint" />
          </mxGeometry>
        </mxCell>
        <mxCell id="4LqL1sIL9XcWVo5Jq6jh-43" value="" style="endArrow=classic;html=1;entryX=0;entryY=0.5;entryDx=0;entryDy=0;exitX=1.04;exitY=0.107;exitDx=0;exitDy=0;exitPerimeter=0;sketch=1;" edge="1" parent="1">
          <mxGeometry width="50" height="50" relative="1" as="geometry">
            <mxPoint x="1942" y="1080" as="sourcePoint" />
            <mxPoint x="1980" y="1080.04" as="targetPoint" />
          </mxGeometry>
        </mxCell>
        <mxCell id="4LqL1sIL9XcWVo5Jq6jh-44" value="" style="endArrow=classic;html=1;entryX=0;entryY=0.5;entryDx=0;entryDy=0;exitX=1.04;exitY=0.107;exitDx=0;exitDy=0;exitPerimeter=0;sketch=1;" edge="1" parent="1">
          <mxGeometry width="50" height="50" relative="1" as="geometry">
            <mxPoint x="1940" y="1139.5" as="sourcePoint" />
            <mxPoint x="1978" y="1139.54" as="targetPoint" />
          </mxGeometry>
        </mxCell>
        <mxCell id="4LqL1sIL9XcWVo5Jq6jh-45" style="edgeStyle=orthogonalEdgeStyle;rounded=0;orthogonalLoop=1;jettySize=auto;html=1;exitX=0.5;exitY=1;exitDx=0;exitDy=0;entryX=0.5;entryY=0;entryDx=0;entryDy=0;startArrow=none;startFill=0;sketch=1;" edge="1" source="4LqL1sIL9XcWVo5Jq6jh-46" target="4LqL1sIL9XcWVo5Jq6jh-48" parent="1">
          <mxGeometry relative="1" as="geometry" />
        </mxCell>
        <mxCell id="4LqL1sIL9XcWVo5Jq6jh-46" value="前端H5" style="rounded=1;whiteSpace=wrap;html=1;fillColor=#fff2cc;strokeColor=#d6b656;sketch=1;" vertex="1" parent="1">
          <mxGeometry x="1720" y="990" width="110" height="40" as="geometry" />
        </mxCell>
        <mxCell id="4LqL1sIL9XcWVo5Jq6jh-47" value="" style="endArrow=classic;html=1;entryX=-0.02;entryY=0.471;entryDx=0;entryDy=0;exitX=1.04;exitY=0.107;exitDx=0;exitDy=0;exitPerimeter=0;entryPerimeter=0;sketch=1;" edge="1" target="4LqL1sIL9XcWVo5Jq6jh-39" parent="1">
          <mxGeometry width="50" height="50" relative="1" as="geometry">
            <mxPoint x="1831" y="1010" as="sourcePoint" />
            <mxPoint x="1869" y="1010.04" as="targetPoint" />
          </mxGeometry>
        </mxCell>
        <mxCell id="4LqL1sIL9XcWVo5Jq6jh-48" value="CDN" style="rounded=1;whiteSpace=wrap;html=1;fillColor=#ffe6cc;strokeColor=#d79b00;sketch=1;" vertex="1" parent="1">
          <mxGeometry x="1715" y="1090" width="120" height="60" as="geometry" />
        </mxCell>
        <mxCell id="4LqL1sIL9XcWVo5Jq6jh-49" value="ZooKeeper/Master" style="rounded=1;whiteSpace=wrap;html=1;fillColor=#e1d5e7;strokeColor=#9673a6;sketch=1;" vertex="1" parent="1">
          <mxGeometry x="1915" y="820" width="200" height="40" as="geometry" />
        </mxCell>
        <mxCell id="4LqL1sIL9XcWVo5Jq6jh-50" value="ZooKeeper/Master" style="rounded=1;whiteSpace=wrap;html=1;fillColor=#e1d5e7;strokeColor=#9673a6;sketch=1;" vertex="1" parent="1">
          <mxGeometry x="1915" y="740" width="200" height="40" as="geometry" />
        </mxCell>
        <mxCell id="4LqL1sIL9XcWVo5Jq6jh-51" value="前端H5" style="rounded=1;whiteSpace=wrap;html=1;fillColor=#fff2cc;strokeColor=#d6b656;sketch=1;" vertex="1" parent="1">
          <mxGeometry x="1770" y="1270" width="415" height="40" as="geometry" />
        </mxCell>
        <mxCell id="4LqL1sIL9XcWVo5Jq6jh-77" style="edgeStyle=orthogonalEdgeStyle;rounded=0;sketch=1;orthogonalLoop=1;jettySize=auto;html=1;exitX=0.5;exitY=1;exitDx=0;exitDy=0;entryX=0.567;entryY=0.025;entryDx=0;entryDy=0;entryPerimeter=0;" edge="1" parent="1" source="4LqL1sIL9XcWVo5Jq6jh-54" target="4LqL1sIL9XcWVo5Jq6jh-56">
          <mxGeometry relative="1" as="geometry" />
        </mxCell>
        <mxCell id="4LqL1sIL9XcWVo5Jq6jh-78" value="回源" style="edgeLabel;html=1;align=center;verticalAlign=middle;resizable=0;points=[];" vertex="1" connectable="0" parent="4LqL1sIL9XcWVo5Jq6jh-77">
          <mxGeometry x="-0.1099" relative="1" as="geometry">
            <mxPoint as="offset" />
          </mxGeometry>
        </mxCell>
        <mxCell id="4LqL1sIL9XcWVo5Jq6jh-54" value="CDN" style="rounded=1;whiteSpace=wrap;html=1;fillColor=#ffe6cc;strokeColor=#d79b00;sketch=1;" vertex="1" parent="1">
          <mxGeometry x="1715" y="1370" width="170" height="40" as="geometry" />
        </mxCell>
        <mxCell id="4LqL1sIL9XcWVo5Jq6jh-55" value="Nginx" style="rounded=1;whiteSpace=wrap;html=1;fillColor=#d5e8d4;strokeColor=#82b366;sketch=1;" vertex="1" parent="1">
          <mxGeometry x="1930" y="1370" width="305" height="40" as="geometry" />
        </mxCell>
        <mxCell id="4LqL1sIL9XcWVo5Jq6jh-84" style="edgeStyle=orthogonalEdgeStyle;rounded=0;sketch=1;orthogonalLoop=1;jettySize=auto;html=1;exitX=0.75;exitY=0;exitDx=0;exitDy=0;" edge="1" parent="1" source="4LqL1sIL9XcWVo5Jq6jh-56" target="4LqL1sIL9XcWVo5Jq6jh-83">
          <mxGeometry relative="1" as="geometry" />
        </mxCell>
        <mxCell id="4LqL1sIL9XcWVo5Jq6jh-56" value="商品服务" style="rounded=1;whiteSpace=wrap;html=1;fillColor=#dae8fc;strokeColor=#6c8ebf;sketch=1;" vertex="1" parent="1">
          <mxGeometry x="1680" y="1590" width="210" height="40" as="geometry" />
        </mxCell>
        <mxCell id="4LqL1sIL9XcWVo5Jq6jh-57" value="" style="endArrow=classic;html=1;entryX=0.5;entryY=0;entryDx=0;entryDy=0;sketch=1;" edge="1" parent="1" target="4LqL1sIL9XcWVo5Jq6jh-54">
          <mxGeometry width="50" height="50" relative="1" as="geometry">
            <mxPoint x="1800" y="1312" as="sourcePoint" />
            <mxPoint x="1770" y="1160" as="targetPoint" />
          </mxGeometry>
        </mxCell>
        <mxCell id="4LqL1sIL9XcWVo5Jq6jh-58" value="静态资源" style="edgeLabel;html=1;align=center;verticalAlign=middle;resizable=0;points=[];sketch=1;" vertex="1" connectable="0" parent="4LqL1sIL9XcWVo5Jq6jh-57">
          <mxGeometry x="-0.2759" y="1" relative="1" as="geometry">
            <mxPoint as="offset" />
          </mxGeometry>
        </mxCell>
        <mxCell id="4LqL1sIL9XcWVo5Jq6jh-59" value="" style="endArrow=classic;html=1;entryX=0.5;entryY=0;entryDx=0;entryDy=0;sketch=1;" edge="1" parent="1">
          <mxGeometry width="50" height="50" relative="1" as="geometry">
            <mxPoint x="2080" y="1310" as="sourcePoint" />
            <mxPoint x="2080" y="1368" as="targetPoint" />
          </mxGeometry>
        </mxCell>
        <mxCell id="4LqL1sIL9XcWVo5Jq6jh-60" value="动态数据" style="edgeLabel;html=1;align=center;verticalAlign=middle;resizable=0;points=[];sketch=1;" vertex="1" connectable="0" parent="4LqL1sIL9XcWVo5Jq6jh-59">
          <mxGeometry x="-0.2759" y="1" relative="1" as="geometry">
            <mxPoint as="offset" />
          </mxGeometry>
        </mxCell>
        <mxCell id="4LqL1sIL9XcWVo5Jq6jh-105" style="edgeStyle=orthogonalEdgeStyle;rounded=0;sketch=1;orthogonalLoop=1;jettySize=auto;html=1;exitX=1;exitY=0.5;exitDx=0;exitDy=0;entryX=0.5;entryY=0;entryDx=0;entryDy=0;" edge="1" parent="1" source="4LqL1sIL9XcWVo5Jq6jh-62" target="4LqL1sIL9XcWVo5Jq6jh-98">
          <mxGeometry relative="1" as="geometry" />
        </mxCell>
        <mxCell id="4LqL1sIL9XcWVo5Jq6jh-106" value="秒杀活动" style="edgeLabel;html=1;align=center;verticalAlign=middle;resizable=0;points=[];" vertex="1" connectable="0" parent="4LqL1sIL9XcWVo5Jq6jh-105">
          <mxGeometry x="-0.6036" y="-2" relative="1" as="geometry">
            <mxPoint as="offset" />
          </mxGeometry>
        </mxCell>
        <mxCell id="4LqL1sIL9XcWVo5Jq6jh-62" value="Nginx" style="rounded=1;whiteSpace=wrap;html=1;fillColor=#d5e8d4;strokeColor=#82b366;sketch=1;" vertex="1" parent="1">
          <mxGeometry x="1940" y="1380" width="305" height="40" as="geometry" />
        </mxCell>
        <mxCell id="4LqL1sIL9XcWVo5Jq6jh-63" value="商品服务" style="rounded=1;whiteSpace=wrap;html=1;fillColor=#dae8fc;strokeColor=#6c8ebf;sketch=1;" vertex="1" parent="1">
          <mxGeometry x="1690" y="1600" width="210" height="40" as="geometry" />
        </mxCell>
        <mxCell id="4LqL1sIL9XcWVo5Jq6jh-79" style="edgeStyle=orthogonalEdgeStyle;rounded=0;sketch=1;orthogonalLoop=1;jettySize=auto;html=1;exitX=0.5;exitY=1;exitDx=0;exitDy=0;entryX=0.667;entryY=-0.043;entryDx=0;entryDy=0;entryPerimeter=0;" edge="1" parent="1" source="4LqL1sIL9XcWVo5Jq6jh-64" target="4LqL1sIL9XcWVo5Jq6jh-65">
          <mxGeometry relative="1" as="geometry" />
        </mxCell>
        <mxCell id="4LqL1sIL9XcWVo5Jq6jh-80" value="回源" style="edgeLabel;html=1;align=center;verticalAlign=middle;resizable=0;points=[];" vertex="1" connectable="0" parent="4LqL1sIL9XcWVo5Jq6jh-79">
          <mxGeometry x="0.0086" y="4" relative="1" as="geometry">
            <mxPoint as="offset" />
          </mxGeometry>
        </mxCell>
        <mxCell id="4LqL1sIL9XcWVo5Jq6jh-64" value="商品服务" style="rounded=1;whiteSpace=wrap;html=1;fillColor=#dae8fc;strokeColor=#6c8ebf;sketch=1;" vertex="1" parent="1">
          <mxGeometry x="1700" y="1610" width="210" height="40" as="geometry" />
        </mxCell>
        <mxCell id="4LqL1sIL9XcWVo5Jq6jh-65" value="OSS" style="shape=cylinder3;whiteSpace=wrap;html=1;boundedLbl=1;backgroundOutline=1;size=15;fillColor=#ffe6cc;strokeColor=#d79b00;sketch=1;" vertex="1" parent="1">
          <mxGeometry x="1765" y="1770" width="60" height="70" as="geometry" />
        </mxCell>
        <mxCell id="4LqL1sIL9XcWVo5Jq6jh-66" value="Redis（slave）" style="shape=cylinder3;whiteSpace=wrap;html=1;boundedLbl=1;backgroundOutline=1;size=15;fillColor=#e1d5e7;strokeColor=#9673a6;sketch=1;" vertex="1" parent="1">
          <mxGeometry x="2245" y="1730" width="320" height="60" as="geometry" />
        </mxCell>
        <mxCell id="4LqL1sIL9XcWVo5Jq6jh-87" style="edgeStyle=orthogonalEdgeStyle;rounded=0;sketch=1;orthogonalLoop=1;jettySize=auto;html=1;exitX=0.5;exitY=0;exitDx=0;exitDy=0;entryX=0.5;entryY=1;entryDx=0;entryDy=0;" edge="1" parent="1" source="4LqL1sIL9XcWVo5Jq6jh-67" target="4LqL1sIL9XcWVo5Jq6jh-83">
          <mxGeometry relative="1" as="geometry" />
        </mxCell>
        <mxCell id="4LqL1sIL9XcWVo5Jq6jh-67" value="评论服务" style="rounded=1;whiteSpace=wrap;html=1;fillColor=#dae8fc;strokeColor=#6c8ebf;sketch=1;" vertex="1" parent="1">
          <mxGeometry x="2340" y="1600" width="140" height="40" as="geometry" />
        </mxCell>
        <mxCell id="4LqL1sIL9XcWVo5Jq6jh-85" style="edgeStyle=orthogonalEdgeStyle;rounded=0;sketch=1;orthogonalLoop=1;jettySize=auto;html=1;exitX=0.5;exitY=0;exitDx=0;exitDy=0;entryX=0.5;entryY=1;entryDx=0;entryDy=0;" edge="1" parent="1" source="4LqL1sIL9XcWVo5Jq6jh-68" target="4LqL1sIL9XcWVo5Jq6jh-83">
          <mxGeometry relative="1" as="geometry" />
        </mxCell>
        <mxCell id="4LqL1sIL9XcWVo5Jq6jh-68" value="用户服务" style="rounded=1;whiteSpace=wrap;html=1;fillColor=#dae8fc;strokeColor=#6c8ebf;sketch=1;" vertex="1" parent="1">
          <mxGeometry x="1930" y="1600" width="150" height="40" as="geometry" />
        </mxCell>
        <mxCell id="4LqL1sIL9XcWVo5Jq6jh-69" value="订单服务" style="rounded=1;whiteSpace=wrap;html=1;fillColor=#dae8fc;strokeColor=#6c8ebf;sketch=1;" vertex="1" parent="1">
          <mxGeometry x="2120" y="1600" width="170" height="40" as="geometry" />
        </mxCell>
        <mxCell id="4LqL1sIL9XcWVo5Jq6jh-70" value="用户服务" style="rounded=1;whiteSpace=wrap;html=1;fillColor=#dae8fc;strokeColor=#6c8ebf;sketch=1;" vertex="1" parent="1">
          <mxGeometry x="1940" y="1610" width="150" height="40" as="geometry" />
        </mxCell>
        <mxCell id="4LqL1sIL9XcWVo5Jq6jh-71" value="用户服务" style="rounded=1;whiteSpace=wrap;html=1;fillColor=#dae8fc;strokeColor=#6c8ebf;sketch=1;" vertex="1" parent="1">
          <mxGeometry x="1950" y="1620" width="150" height="40" as="geometry" />
        </mxCell>
        <mxCell id="4LqL1sIL9XcWVo5Jq6jh-72" value="订单服务" style="rounded=1;whiteSpace=wrap;html=1;fillColor=#dae8fc;strokeColor=#6c8ebf;sketch=1;" vertex="1" parent="1">
          <mxGeometry x="2130" y="1610" width="170" height="40" as="geometry" />
        </mxCell>
        <mxCell id="4LqL1sIL9XcWVo5Jq6jh-86" style="edgeStyle=orthogonalEdgeStyle;rounded=0;sketch=1;orthogonalLoop=1;jettySize=auto;html=1;exitX=0.5;exitY=0;exitDx=0;exitDy=0;entryX=0.5;entryY=1;entryDx=0;entryDy=0;" edge="1" parent="1" source="4LqL1sIL9XcWVo5Jq6jh-73" target="4LqL1sIL9XcWVo5Jq6jh-83">
          <mxGeometry relative="1" as="geometry">
            <Array as="points">
              <mxPoint x="2200" y="1570" />
              <mxPoint x="2145" y="1570" />
            </Array>
          </mxGeometry>
        </mxCell>
        <mxCell id="4LqL1sIL9XcWVo5Jq6jh-73" value="订单服务" style="rounded=1;whiteSpace=wrap;html=1;fillColor=#dae8fc;strokeColor=#6c8ebf;sketch=1;" vertex="1" parent="1">
          <mxGeometry x="2115" y="1580" width="170" height="40" as="geometry" />
        </mxCell>
        <mxCell id="4LqL1sIL9XcWVo5Jq6jh-74" value="订单服务" style="rounded=1;whiteSpace=wrap;html=1;fillColor=#dae8fc;strokeColor=#6c8ebf;sketch=1;" vertex="1" parent="1">
          <mxGeometry x="2125" y="1590" width="170" height="40" as="geometry" />
        </mxCell>
        <mxCell id="4LqL1sIL9XcWVo5Jq6jh-75" value="订单服务" style="rounded=1;whiteSpace=wrap;html=1;fillColor=#dae8fc;strokeColor=#6c8ebf;sketch=1;" vertex="1" parent="1">
          <mxGeometry x="2140" y="1620" width="170" height="40" as="geometry" />
        </mxCell>
        <mxCell id="4LqL1sIL9XcWVo5Jq6jh-76" value="评论服务" style="rounded=1;whiteSpace=wrap;html=1;fillColor=#dae8fc;strokeColor=#6c8ebf;sketch=1;" vertex="1" parent="1">
          <mxGeometry x="2350" y="1610" width="140" height="40" as="geometry" />
        </mxCell>
        <mxCell id="4LqL1sIL9XcWVo5Jq6jh-81" value="ZooKeeper（slave）" style="rounded=1;whiteSpace=wrap;html=1;fillColor=#e1d5e7;strokeColor=#9673a6;sketch=1;" vertex="1" parent="1">
          <mxGeometry x="1860" y="1480" width="490" height="40" as="geometry" />
        </mxCell>
        <mxCell id="4LqL1sIL9XcWVo5Jq6jh-82" value="ZooKeeper（slave）" style="rounded=1;whiteSpace=wrap;html=1;fillColor=#e1d5e7;strokeColor=#9673a6;sketch=1;" vertex="1" parent="1">
          <mxGeometry x="1880" y="1490" width="490" height="40" as="geometry" />
        </mxCell>
        <mxCell id="4LqL1sIL9XcWVo5Jq6jh-83" value="ZooKeeper（master）" style="rounded=1;whiteSpace=wrap;html=1;fillColor=#e1d5e7;strokeColor=#9673a6;sketch=1;" vertex="1" parent="1">
          <mxGeometry x="1900" y="1500" width="490" height="40" as="geometry" />
        </mxCell>
        <mxCell id="4LqL1sIL9XcWVo5Jq6jh-88" value="Redis（slave）" style="shape=cylinder3;whiteSpace=wrap;html=1;boundedLbl=1;backgroundOutline=1;size=15;fillColor=#e1d5e7;strokeColor=#9673a6;sketch=1;" vertex="1" parent="1">
          <mxGeometry x="2255" y="1740" width="320" height="60" as="geometry" />
        </mxCell>
        <mxCell id="4LqL1sIL9XcWVo5Jq6jh-89" value="Redis（master）" style="shape=cylinder3;whiteSpace=wrap;html=1;boundedLbl=1;backgroundOutline=1;size=15;fillColor=#e1d5e7;strokeColor=#9673a6;sketch=1;" vertex="1" parent="1">
          <mxGeometry x="2265" y="1750" width="320" height="60" as="geometry" />
        </mxCell>
        <mxCell id="4LqL1sIL9XcWVo5Jq6jh-90" value="Mysql（master）" style="shape=cylinder3;whiteSpace=wrap;html=1;boundedLbl=1;backgroundOutline=1;size=15;fillColor=#dae8fc;strokeColor=#6c8ebf;sketch=1;" vertex="1" parent="1">
          <mxGeometry x="1900" y="1730" width="100" height="110" as="geometry" />
        </mxCell>
        <mxCell id="4LqL1sIL9XcWVo5Jq6jh-92" style="edgeStyle=orthogonalEdgeStyle;rounded=0;sketch=1;orthogonalLoop=1;jettySize=auto;html=1;exitX=0;exitY=0.5;exitDx=0;exitDy=0;exitPerimeter=0;entryX=1;entryY=0.5;entryDx=0;entryDy=0;entryPerimeter=0;" edge="1" parent="1" source="4LqL1sIL9XcWVo5Jq6jh-91" target="4LqL1sIL9XcWVo5Jq6jh-90">
          <mxGeometry relative="1" as="geometry" />
        </mxCell>
        <mxCell id="4LqL1sIL9XcWVo5Jq6jh-91" value="Mysql（slave）" style="shape=cylinder3;whiteSpace=wrap;html=1;boundedLbl=1;backgroundOutline=1;size=15;fillColor=#dae8fc;strokeColor=#6c8ebf;sketch=1;" vertex="1" parent="1">
          <mxGeometry x="2040" y="1730" width="100" height="110" as="geometry" />
        </mxCell>
        <mxCell id="4LqL1sIL9XcWVo5Jq6jh-95" style="edgeStyle=orthogonalEdgeStyle;rounded=0;sketch=1;orthogonalLoop=1;jettySize=auto;html=1;exitX=0.5;exitY=0;exitDx=0;exitDy=0;entryX=0.538;entryY=1.017;entryDx=0;entryDy=0;entryPerimeter=0;" edge="1" parent="1" source="4LqL1sIL9XcWVo5Jq6jh-94" target="4LqL1sIL9XcWVo5Jq6jh-89">
          <mxGeometry relative="1" as="geometry" />
        </mxCell>
        <mxCell id="4LqL1sIL9XcWVo5Jq6jh-97" value="监听" style="edgeLabel;html=1;align=center;verticalAlign=middle;resizable=0;points=[];" vertex="1" connectable="0" parent="4LqL1sIL9XcWVo5Jq6jh-95">
          <mxGeometry x="0.0268" y="2" relative="1" as="geometry">
            <mxPoint as="offset" />
          </mxGeometry>
        </mxCell>
        <mxCell id="4LqL1sIL9XcWVo5Jq6jh-94" value="Redis - Sentinel" style="rounded=1;whiteSpace=wrap;html=1;fillColor=#dae8fc;strokeColor=#6c8ebf;sketch=1;" vertex="1" parent="1">
          <mxGeometry x="2305" y="1860" width="265" height="40" as="geometry" />
        </mxCell>
        <mxCell id="4LqL1sIL9XcWVo5Jq6jh-96" style="edgeStyle=orthogonalEdgeStyle;rounded=0;sketch=1;orthogonalLoop=1;jettySize=auto;html=1;exitX=0.5;exitY=1;exitDx=0;exitDy=0;" edge="1" parent="1" source="4LqL1sIL9XcWVo5Jq6jh-94" target="4LqL1sIL9XcWVo5Jq6jh-94">
          <mxGeometry relative="1" as="geometry" />
        </mxCell>
        <mxCell id="4LqL1sIL9XcWVo5Jq6jh-98" value="秒杀服务" style="rounded=1;whiteSpace=wrap;html=1;fillColor=#dae8fc;strokeColor=#6c8ebf;sketch=1;" vertex="1" parent="1">
          <mxGeometry x="2510" y="1600" width="170" height="40" as="geometry" />
        </mxCell>
        <mxCell id="4LqL1sIL9XcWVo5Jq6jh-101" style="edgeStyle=orthogonalEdgeStyle;rounded=0;sketch=1;orthogonalLoop=1;jettySize=auto;html=1;exitX=0.5;exitY=1;exitDx=0;exitDy=0;entryX=0.5;entryY=1;entryDx=0;entryDy=0;" edge="1" parent="1" source="4LqL1sIL9XcWVo5Jq6jh-100" target="4LqL1sIL9XcWVo5Jq6jh-75">
          <mxGeometry relative="1" as="geometry" />
        </mxCell>
        <mxCell id="4LqL1sIL9XcWVo5Jq6jh-102" style="edgeStyle=orthogonalEdgeStyle;rounded=0;sketch=1;orthogonalLoop=1;jettySize=auto;html=1;exitX=0.5;exitY=1;exitDx=0;exitDy=0;entryX=0.5;entryY=1;entryDx=0;entryDy=0;" edge="1" parent="1" source="4LqL1sIL9XcWVo5Jq6jh-100" target="4LqL1sIL9XcWVo5Jq6jh-71">
          <mxGeometry relative="1" as="geometry" />
        </mxCell>
        <mxCell id="4LqL1sIL9XcWVo5Jq6jh-103" style="edgeStyle=orthogonalEdgeStyle;rounded=0;sketch=1;orthogonalLoop=1;jettySize=auto;html=1;exitX=0.5;exitY=1;exitDx=0;exitDy=0;entryX=0.5;entryY=1;entryDx=0;entryDy=0;" edge="1" parent="1" source="4LqL1sIL9XcWVo5Jq6jh-100" target="4LqL1sIL9XcWVo5Jq6jh-64">
          <mxGeometry relative="1" as="geometry">
            <Array as="points">
              <mxPoint x="2605" y="1680" />
              <mxPoint x="1805" y="1680" />
            </Array>
          </mxGeometry>
        </mxCell>
        <mxCell id="4LqL1sIL9XcWVo5Jq6jh-104" value="RPC调用" style="edgeLabel;html=1;align=center;verticalAlign=middle;resizable=0;points=[];" vertex="1" connectable="0" parent="4LqL1sIL9XcWVo5Jq6jh-103">
          <mxGeometry x="-0.4767" relative="1" as="geometry">
            <mxPoint as="offset" />
          </mxGeometry>
        </mxCell>
        <mxCell id="4LqL1sIL9XcWVo5Jq6jh-100" value="秒杀服务" style="rounded=1;whiteSpace=wrap;html=1;fillColor=#dae8fc;strokeColor=#6c8ebf;sketch=1;" vertex="1" parent="1">
          <mxGeometry x="2520" y="1610" width="170" height="40" as="geometry" />
        </mxCell>
        <mxCell id="4LqL1sIL9XcWVo5Jq6jh-164" style="edgeStyle=orthogonalEdgeStyle;rounded=0;sketch=1;orthogonalLoop=1;jettySize=auto;html=1;exitX=0.75;exitY=1;exitDx=0;exitDy=0;entryX=0.613;entryY=0.025;entryDx=0;entryDy=0;entryPerimeter=0;strokeColor=#FF3333;" edge="1" parent="1" source="4LqL1sIL9XcWVo5Jq6jh-107" target="4LqL1sIL9XcWVo5Jq6jh-120">
          <mxGeometry relative="1" as="geometry" />
        </mxCell>
        <mxCell id="4LqL1sIL9XcWVo5Jq6jh-165" value="动态数据" style="edgeLabel;html=1;align=center;verticalAlign=middle;resizable=0;points=[];" vertex="1" connectable="0" parent="4LqL1sIL9XcWVo5Jq6jh-164">
          <mxGeometry x="-0.0734" relative="1" as="geometry">
            <mxPoint as="offset" />
          </mxGeometry>
        </mxCell>
        <mxCell id="4LqL1sIL9XcWVo5Jq6jh-107" value="前端H5" style="rounded=1;whiteSpace=wrap;html=1;fillColor=#fff2cc;strokeColor=#d6b656;sketch=1;" vertex="1" parent="1">
          <mxGeometry x="1710" y="2010" width="530" height="40" as="geometry" />
        </mxCell>
        <mxCell id="4LqL1sIL9XcWVo5Jq6jh-108" style="edgeStyle=orthogonalEdgeStyle;rounded=0;sketch=1;orthogonalLoop=1;jettySize=auto;html=1;exitX=0.5;exitY=1;exitDx=0;exitDy=0;entryX=0.5;entryY=0;entryDx=0;entryDy=0;" edge="1" source="4LqL1sIL9XcWVo5Jq6jh-110" parent="1" target="4LqL1sIL9XcWVo5Jq6jh-120">
          <mxGeometry relative="1" as="geometry">
            <mxPoint x="1779.0700000000002" y="2331" as="targetPoint" />
          </mxGeometry>
        </mxCell>
        <mxCell id="4LqL1sIL9XcWVo5Jq6jh-109" value="回源" style="edgeLabel;html=1;align=center;verticalAlign=middle;resizable=0;points=[];" vertex="1" connectable="0" parent="4LqL1sIL9XcWVo5Jq6jh-108">
          <mxGeometry x="-0.1099" relative="1" as="geometry">
            <mxPoint as="offset" />
          </mxGeometry>
        </mxCell>
        <mxCell id="4LqL1sIL9XcWVo5Jq6jh-110" value="CDN" style="rounded=1;whiteSpace=wrap;html=1;fillColor=#ffe6cc;strokeColor=#d79b00;sketch=1;" vertex="1" parent="1">
          <mxGeometry x="1695" y="2110" width="255" height="40" as="geometry" />
        </mxCell>
        <mxCell id="4LqL1sIL9XcWVo5Jq6jh-113" value="" style="endArrow=classic;html=1;entryX=0.5;entryY=0;entryDx=0;entryDy=0;sketch=1;exitX=0.208;exitY=1;exitDx=0;exitDy=0;exitPerimeter=0;" edge="1" target="4LqL1sIL9XcWVo5Jq6jh-110" parent="1" source="4LqL1sIL9XcWVo5Jq6jh-107">
          <mxGeometry width="50" height="50" relative="1" as="geometry">
            <mxPoint x="1780" y="2052" as="sourcePoint" />
            <mxPoint x="1750" y="1900" as="targetPoint" />
          </mxGeometry>
        </mxCell>
        <mxCell id="4LqL1sIL9XcWVo5Jq6jh-114" value="静态资源" style="edgeLabel;html=1;align=center;verticalAlign=middle;resizable=0;points=[];sketch=1;" vertex="1" connectable="0" parent="4LqL1sIL9XcWVo5Jq6jh-113">
          <mxGeometry x="-0.2759" y="1" relative="1" as="geometry">
            <mxPoint as="offset" />
          </mxGeometry>
        </mxCell>
        <mxCell id="4LqL1sIL9XcWVo5Jq6jh-162" style="edgeStyle=orthogonalEdgeStyle;rounded=0;sketch=1;orthogonalLoop=1;jettySize=auto;html=1;exitX=0.75;exitY=1;exitDx=0;exitDy=0;entryX=0.5;entryY=0;entryDx=0;entryDy=0;entryPerimeter=0;strokeColor=#FF3333;" edge="1" parent="1" source="4LqL1sIL9XcWVo5Jq6jh-120" target="4LqL1sIL9XcWVo5Jq6jh-142">
          <mxGeometry relative="1" as="geometry" />
        </mxCell>
        <mxCell id="4LqL1sIL9XcWVo5Jq6jh-166" value="缓存访问" style="edgeLabel;html=1;align=center;verticalAlign=middle;resizable=0;points=[];" vertex="1" connectable="0" parent="4LqL1sIL9XcWVo5Jq6jh-162">
          <mxGeometry x="-0.8234" y="3" relative="1" as="geometry">
            <mxPoint as="offset" />
          </mxGeometry>
        </mxCell>
        <mxCell id="4LqL1sIL9XcWVo5Jq6jh-120" value="商品服务" style="rounded=1;whiteSpace=wrap;html=1;fillColor=#dae8fc;strokeColor=#6c8ebf;sketch=1;" vertex="1" parent="1">
          <mxGeometry x="1835" y="2230" width="445" height="40" as="geometry" />
        </mxCell>
        <mxCell id="4LqL1sIL9XcWVo5Jq6jh-121" style="edgeStyle=orthogonalEdgeStyle;rounded=0;sketch=1;orthogonalLoop=1;jettySize=auto;html=1;exitX=0.5;exitY=1;exitDx=0;exitDy=0;entryX=0.5;entryY=0;entryDx=0;entryDy=0;entryPerimeter=0;" edge="1" source="4LqL1sIL9XcWVo5Jq6jh-120" target="4LqL1sIL9XcWVo5Jq6jh-124" parent="1">
          <mxGeometry relative="1" as="geometry">
            <mxPoint x="2173" y="2270" as="sourcePoint" />
            <mxPoint x="1940" y="2400" as="targetPoint" />
          </mxGeometry>
        </mxCell>
        <mxCell id="4LqL1sIL9XcWVo5Jq6jh-122" value="回源" style="edgeLabel;html=1;align=center;verticalAlign=middle;resizable=0;points=[];" vertex="1" connectable="0" parent="4LqL1sIL9XcWVo5Jq6jh-121">
          <mxGeometry x="0.0086" y="4" relative="1" as="geometry">
            <mxPoint as="offset" />
          </mxGeometry>
        </mxCell>
        <mxCell id="4LqL1sIL9XcWVo5Jq6jh-124" value="OSS" style="shape=cylinder3;whiteSpace=wrap;html=1;boundedLbl=1;backgroundOutline=1;size=15;fillColor=#ffe6cc;strokeColor=#d79b00;sketch=1;" vertex="1" parent="1">
          <mxGeometry x="1920" y="2390" width="60" height="70" as="geometry" />
        </mxCell>
        <mxCell id="4LqL1sIL9XcWVo5Jq6jh-125" value="Redis（slave）" style="shape=cylinder3;whiteSpace=wrap;html=1;boundedLbl=1;backgroundOutline=1;size=15;fillColor=#e1d5e7;strokeColor=#9673a6;sketch=1;" vertex="1" parent="1">
          <mxGeometry x="2080" y="2360" width="320" height="60" as="geometry" />
        </mxCell>
        <mxCell id="4LqL1sIL9XcWVo5Jq6jh-142" value="Redis（slave）" style="shape=cylinder3;whiteSpace=wrap;html=1;boundedLbl=1;backgroundOutline=1;size=15;fillColor=#e1d5e7;strokeColor=#9673a6;sketch=1;" vertex="1" parent="1">
          <mxGeometry x="2090" y="2370" width="320" height="60" as="geometry" />
        </mxCell>
        <mxCell id="4LqL1sIL9XcWVo5Jq6jh-163" style="edgeStyle=orthogonalEdgeStyle;rounded=0;sketch=1;orthogonalLoop=1;jettySize=auto;html=1;exitX=0.5;exitY=1;exitDx=0;exitDy=0;exitPerimeter=0;entryX=0.5;entryY=0;entryDx=0;entryDy=0;entryPerimeter=0;strokeColor=#FF3333;" edge="1" parent="1" source="4LqL1sIL9XcWVo5Jq6jh-143" target="4LqL1sIL9XcWVo5Jq6jh-146">
          <mxGeometry relative="1" as="geometry" />
        </mxCell>
        <mxCell id="4LqL1sIL9XcWVo5Jq6jh-143" value="Redis（master）" style="shape=cylinder3;whiteSpace=wrap;html=1;boundedLbl=1;backgroundOutline=1;size=15;fillColor=#e1d5e7;strokeColor=#9673a6;sketch=1;" vertex="1" parent="1">
          <mxGeometry x="2100" y="2380" width="320" height="60" as="geometry" />
        </mxCell>
        <mxCell id="4LqL1sIL9XcWVo5Jq6jh-144" value="Mysql（master）" style="shape=cylinder3;whiteSpace=wrap;html=1;boundedLbl=1;backgroundOutline=1;size=15;fillColor=#dae8fc;strokeColor=#6c8ebf;sketch=1;" vertex="1" parent="1">
          <mxGeometry x="2065" y="2500" width="100" height="110" as="geometry" />
        </mxCell>
        <mxCell id="4LqL1sIL9XcWVo5Jq6jh-145" style="edgeStyle=orthogonalEdgeStyle;rounded=0;sketch=1;orthogonalLoop=1;jettySize=auto;html=1;exitX=0;exitY=0.5;exitDx=0;exitDy=0;exitPerimeter=0;entryX=1;entryY=0.5;entryDx=0;entryDy=0;entryPerimeter=0;" edge="1" source="4LqL1sIL9XcWVo5Jq6jh-146" target="4LqL1sIL9XcWVo5Jq6jh-144" parent="1">
          <mxGeometry relative="1" as="geometry" />
        </mxCell>
        <mxCell id="4LqL1sIL9XcWVo5Jq6jh-146" value="Mysql（slave）" style="shape=cylinder3;whiteSpace=wrap;html=1;boundedLbl=1;backgroundOutline=1;size=15;fillColor=#dae8fc;strokeColor=#6c8ebf;sketch=1;" vertex="1" parent="1">
          <mxGeometry x="2210" y="2500" width="100" height="110" as="geometry" />
        </mxCell>
        <mxCell id="4LqL1sIL9XcWVo5Jq6jh-150" style="edgeStyle=orthogonalEdgeStyle;rounded=0;sketch=1;orthogonalLoop=1;jettySize=auto;html=1;exitX=0.5;exitY=1;exitDx=0;exitDy=0;" edge="1" parent="1">
          <mxGeometry relative="1" as="geometry">
            <mxPoint x="2747.5" y="2610" as="sourcePoint" />
            <mxPoint x="2747.5" y="2610" as="targetPoint" />
          </mxGeometry>
        </mxCell>
        <mxCell id="4LqL1sIL9XcWVo5Jq6jh-168" value="前端H5" style="rounded=1;whiteSpace=wrap;html=1;fillColor=#fff2cc;strokeColor=#d6b656;sketch=1;" vertex="1" parent="1">
          <mxGeometry x="2985" y="1214.5" width="415" height="40" as="geometry" />
        </mxCell>
        <mxCell id="4LqL1sIL9XcWVo5Jq6jh-172" value="Nginx" style="rounded=1;whiteSpace=wrap;html=1;fillColor=#d5e8d4;strokeColor=#82b366;sketch=1;" vertex="1" parent="1">
          <mxGeometry x="3145" y="1314.5" width="305" height="40" as="geometry" />
        </mxCell>
        <mxCell id="4LqL1sIL9XcWVo5Jq6jh-174" value="商品服务" style="rounded=1;whiteSpace=wrap;html=1;fillColor=#dae8fc;strokeColor=#6c8ebf;sketch=1;" vertex="1" parent="1">
          <mxGeometry x="3125" y="1600" width="130" height="40" as="geometry" />
        </mxCell>
        <mxCell id="4LqL1sIL9XcWVo5Jq6jh-177" value="" style="endArrow=classic;html=1;entryX=0.5;entryY=0;entryDx=0;entryDy=0;sketch=1;" edge="1" parent="1">
          <mxGeometry width="50" height="50" relative="1" as="geometry">
            <mxPoint x="3295" y="1254.5" as="sourcePoint" />
            <mxPoint x="3295" y="1312.5" as="targetPoint" />
          </mxGeometry>
        </mxCell>
        <mxCell id="4LqL1sIL9XcWVo5Jq6jh-178" value="动态数据" style="edgeLabel;html=1;align=center;verticalAlign=middle;resizable=0;points=[];sketch=1;" vertex="1" connectable="0" parent="4LqL1sIL9XcWVo5Jq6jh-177">
          <mxGeometry x="-0.2759" y="1" relative="1" as="geometry">
            <mxPoint as="offset" />
          </mxGeometry>
        </mxCell>
        <mxCell id="4LqL1sIL9XcWVo5Jq6jh-179" style="edgeStyle=orthogonalEdgeStyle;rounded=0;sketch=1;orthogonalLoop=1;jettySize=auto;html=1;exitX=1;exitY=0.5;exitDx=0;exitDy=0;entryX=0.5;entryY=0;entryDx=0;entryDy=0;" edge="1" source="4LqL1sIL9XcWVo5Jq6jh-181" target="4LqL1sIL9XcWVo5Jq6jh-213" parent="1">
          <mxGeometry relative="1" as="geometry" />
        </mxCell>
        <mxCell id="4LqL1sIL9XcWVo5Jq6jh-180" value="秒杀活动" style="edgeLabel;html=1;align=center;verticalAlign=middle;resizable=0;points=[];" vertex="1" connectable="0" parent="4LqL1sIL9XcWVo5Jq6jh-179">
          <mxGeometry x="-0.6036" y="-2" relative="1" as="geometry">
            <mxPoint as="offset" />
          </mxGeometry>
        </mxCell>
        <mxCell id="4LqL1sIL9XcWVo5Jq6jh-181" value="Nginx" style="rounded=1;whiteSpace=wrap;html=1;fillColor=#d5e8d4;strokeColor=#82b366;sketch=1;" vertex="1" parent="1">
          <mxGeometry x="3155" y="1324.5" width="305" height="40" as="geometry" />
        </mxCell>
        <mxCell id="4LqL1sIL9XcWVo5Jq6jh-191" value="用户服务" style="rounded=1;whiteSpace=wrap;html=1;fillColor=#dae8fc;strokeColor=#6c8ebf;sketch=1;" vertex="1" parent="1">
          <mxGeometry x="3277.5" y="1600" width="150" height="40" as="geometry" />
        </mxCell>
        <mxCell id="4LqL1sIL9XcWVo5Jq6jh-230" style="edgeStyle=orthogonalEdgeStyle;rounded=0;sketch=1;orthogonalLoop=1;jettySize=auto;html=1;exitX=0.5;exitY=1;exitDx=0;exitDy=0;strokeColor=#330000;" edge="1" parent="1" source="4LqL1sIL9XcWVo5Jq6jh-192" target="4LqL1sIL9XcWVo5Jq6jh-174">
          <mxGeometry relative="1" as="geometry" />
        </mxCell>
        <mxCell id="4LqL1sIL9XcWVo5Jq6jh-231" style="edgeStyle=orthogonalEdgeStyle;rounded=0;sketch=1;orthogonalLoop=1;jettySize=auto;html=1;exitX=0.5;exitY=1;exitDx=0;exitDy=0;entryX=0.5;entryY=0;entryDx=0;entryDy=0;strokeColor=#330000;" edge="1" parent="1" source="4LqL1sIL9XcWVo5Jq6jh-192" target="4LqL1sIL9XcWVo5Jq6jh-191">
          <mxGeometry relative="1" as="geometry" />
        </mxCell>
        <mxCell id="4LqL1sIL9XcWVo5Jq6jh-232" style="edgeStyle=orthogonalEdgeStyle;rounded=0;sketch=1;orthogonalLoop=1;jettySize=auto;html=1;exitX=0.5;exitY=1;exitDx=0;exitDy=0;entryX=0.5;entryY=0;entryDx=0;entryDy=0;strokeColor=#330000;" edge="1" parent="1" source="4LqL1sIL9XcWVo5Jq6jh-192" target="4LqL1sIL9XcWVo5Jq6jh-221">
          <mxGeometry relative="1" as="geometry" />
        </mxCell>
        <mxCell id="4LqL1sIL9XcWVo5Jq6jh-233" value="RPC" style="edgeLabel;html=1;align=center;verticalAlign=middle;resizable=0;points=[];" vertex="1" connectable="0" parent="4LqL1sIL9XcWVo5Jq6jh-232">
          <mxGeometry x="-0.8945" y="2" relative="1" as="geometry">
            <mxPoint as="offset" />
          </mxGeometry>
        </mxCell>
        <mxCell id="4LqL1sIL9XcWVo5Jq6jh-234" style="edgeStyle=orthogonalEdgeStyle;rounded=0;sketch=1;orthogonalLoop=1;jettySize=auto;html=1;exitX=0;exitY=0.5;exitDx=0;exitDy=0;entryX=0.99;entryY=0.6;entryDx=0;entryDy=0;entryPerimeter=0;strokeColor=#330000;" edge="1" parent="1" source="4LqL1sIL9XcWVo5Jq6jh-192" target="4LqL1sIL9XcWVo5Jq6jh-206">
          <mxGeometry relative="1" as="geometry" />
        </mxCell>
        <mxCell id="4LqL1sIL9XcWVo5Jq6jh-235" value="下单成功" style="edgeLabel;html=1;align=center;verticalAlign=middle;resizable=0;points=[];" vertex="1" connectable="0" parent="4LqL1sIL9XcWVo5Jq6jh-234">
          <mxGeometry x="0.0244" y="1" relative="1" as="geometry">
            <mxPoint x="1" as="offset" />
          </mxGeometry>
        </mxCell>
        <mxCell id="4LqL1sIL9XcWVo5Jq6jh-192" value="订单服务" style="rounded=1;whiteSpace=wrap;html=1;fillColor=#dae8fc;strokeColor=#6c8ebf;sketch=1;" vertex="1" parent="1">
          <mxGeometry x="3267.5" y="1510" width="170" height="40" as="geometry" />
        </mxCell>
        <mxCell id="4LqL1sIL9XcWVo5Jq6jh-205" value="Redis（master）" style="shape=cylinder3;whiteSpace=wrap;html=1;boundedLbl=1;backgroundOutline=1;size=15;fillColor=#e1d5e7;strokeColor=#9673a6;sketch=1;" vertex="1" parent="1">
          <mxGeometry x="3640" y="1530" width="320" height="60" as="geometry" />
        </mxCell>
        <mxCell id="4LqL1sIL9XcWVo5Jq6jh-206" value="Mysql（master）" style="shape=cylinder3;whiteSpace=wrap;html=1;boundedLbl=1;backgroundOutline=1;size=15;fillColor=#dae8fc;strokeColor=#6c8ebf;sketch=1;" vertex="1" parent="1">
          <mxGeometry x="2985" y="1465" width="100" height="110" as="geometry" />
        </mxCell>
        <mxCell id="4LqL1sIL9XcWVo5Jq6jh-222" style="edgeStyle=orthogonalEdgeStyle;rounded=0;sketch=1;orthogonalLoop=1;jettySize=auto;html=1;exitX=0.75;exitY=1;exitDx=0;exitDy=0;entryX=0.678;entryY=0;entryDx=0;entryDy=0;entryPerimeter=0;strokeColor=#330000;" edge="1" parent="1" source="4LqL1sIL9XcWVo5Jq6jh-213" target="4LqL1sIL9XcWVo5Jq6jh-205">
          <mxGeometry relative="1" as="geometry" />
        </mxCell>
        <mxCell id="4LqL1sIL9XcWVo5Jq6jh-223" value="减库存" style="edgeLabel;html=1;align=center;verticalAlign=middle;resizable=0;points=[];" vertex="1" connectable="0" parent="4LqL1sIL9XcWVo5Jq6jh-222">
          <mxGeometry x="0.2341" y="-1" relative="1" as="geometry">
            <mxPoint as="offset" />
          </mxGeometry>
        </mxCell>
        <mxCell id="4LqL1sIL9XcWVo5Jq6jh-226" style="edgeStyle=orthogonalEdgeStyle;rounded=0;sketch=1;orthogonalLoop=1;jettySize=auto;html=1;exitX=0;exitY=0.5;exitDx=0;exitDy=0;entryX=1;entryY=0.5;entryDx=0;entryDy=0;strokeColor=#330000;" edge="1" parent="1" source="4LqL1sIL9XcWVo5Jq6jh-213" target="4LqL1sIL9XcWVo5Jq6jh-219">
          <mxGeometry relative="1" as="geometry" />
        </mxCell>
        <mxCell id="4LqL1sIL9XcWVo5Jq6jh-227" value="发送消息" style="edgeLabel;html=1;align=center;verticalAlign=middle;resizable=0;points=[];" vertex="1" connectable="0" parent="4LqL1sIL9XcWVo5Jq6jh-226">
          <mxGeometry x="0.0207" y="-3" relative="1" as="geometry">
            <mxPoint as="offset" />
          </mxGeometry>
        </mxCell>
        <mxCell id="4LqL1sIL9XcWVo5Jq6jh-236" style="edgeStyle=orthogonalEdgeStyle;rounded=0;sketch=1;orthogonalLoop=1;jettySize=auto;html=1;exitX=0.75;exitY=0;exitDx=0;exitDy=0;entryX=1;entryY=0.5;entryDx=0;entryDy=0;strokeColor=#330000;" edge="1" parent="1" source="4LqL1sIL9XcWVo5Jq6jh-213" target="4LqL1sIL9XcWVo5Jq6jh-168">
          <mxGeometry relative="1" as="geometry" />
        </mxCell>
        <mxCell id="4LqL1sIL9XcWVo5Jq6jh-237" value="秒杀结果" style="edgeLabel;html=1;align=center;verticalAlign=middle;resizable=0;points=[];" vertex="1" connectable="0" parent="4LqL1sIL9XcWVo5Jq6jh-236">
          <mxGeometry x="-0.6458" y="1" relative="1" as="geometry">
            <mxPoint x="1" as="offset" />
          </mxGeometry>
        </mxCell>
        <mxCell id="4LqL1sIL9XcWVo5Jq6jh-213" value="秒杀服务" style="rounded=1;whiteSpace=wrap;html=1;fillColor=#dae8fc;strokeColor=#6c8ebf;sketch=1;" vertex="1" parent="1">
          <mxGeometry x="3730" y="1415" width="170" height="40" as="geometry" />
        </mxCell>
        <mxCell id="4LqL1sIL9XcWVo5Jq6jh-228" style="edgeStyle=orthogonalEdgeStyle;rounded=0;sketch=1;orthogonalLoop=1;jettySize=auto;html=1;exitX=0.5;exitY=1;exitDx=0;exitDy=0;entryX=0.5;entryY=0;entryDx=0;entryDy=0;strokeColor=#330000;" edge="1" parent="1" source="4LqL1sIL9XcWVo5Jq6jh-219" target="4LqL1sIL9XcWVo5Jq6jh-192">
          <mxGeometry relative="1" as="geometry" />
        </mxCell>
        <mxCell id="4LqL1sIL9XcWVo5Jq6jh-229" value="消费消息" style="edgeLabel;html=1;align=center;verticalAlign=middle;resizable=0;points=[];" vertex="1" connectable="0" parent="4LqL1sIL9XcWVo5Jq6jh-228">
          <mxGeometry x="-0.24" y="1" relative="1" as="geometry">
            <mxPoint as="offset" />
          </mxGeometry>
        </mxCell>
        <mxCell id="4LqL1sIL9XcWVo5Jq6jh-219" value="RocketMQ" style="rounded=1;whiteSpace=wrap;html=1;sketch=1;fillColor=#fff2cc;strokeColor=#d6b656;" vertex="1" parent="1">
          <mxGeometry x="3120" y="1410" width="465" height="50" as="geometry" />
        </mxCell>
        <mxCell id="4LqL1sIL9XcWVo5Jq6jh-221" value="支付服务" style="rounded=1;whiteSpace=wrap;html=1;fillColor=#dae8fc;strokeColor=#6c8ebf;sketch=1;" vertex="1" parent="1">
          <mxGeometry x="3455" y="1600" width="150" height="40" as="geometry" />
        </mxCell>
        <mxCell id="4LqL1sIL9XcWVo5Jq6jh-224" style="edgeStyle=orthogonalEdgeStyle;rounded=0;sketch=1;orthogonalLoop=1;jettySize=auto;html=1;exitX=0.341;exitY=0;exitDx=0;exitDy=0;strokeColor=#330000;exitPerimeter=0;" edge="1" parent="1" source="4LqL1sIL9XcWVo5Jq6jh-205">
          <mxGeometry relative="1" as="geometry">
            <mxPoint x="3867.5" y="1470" as="sourcePoint" />
            <mxPoint x="3746" y="1462" as="targetPoint" />
          </mxGeometry>
        </mxCell>
        <mxCell id="4LqL1sIL9XcWVo5Jq6jh-225" value="处理结果" style="edgeLabel;html=1;align=center;verticalAlign=middle;resizable=0;points=[];" vertex="1" connectable="0" parent="4LqL1sIL9XcWVo5Jq6jh-224">
          <mxGeometry x="0.2341" y="-1" relative="1" as="geometry">
            <mxPoint as="offset" />
          </mxGeometry>
        </mxCell>
        <mxCell id="4LqL1sIL9XcWVo5Jq6jh-238" value="" style="rounded=1;whiteSpace=wrap;html=1;sketch=1;fillColor=#d5e8d4;strokeColor=#82b366;" vertex="1" parent="1">
          <mxGeometry x="2950" y="1950" width="320" height="380" as="geometry" />
        </mxCell>
        <mxCell id="4LqL1sIL9XcWVo5Jq6jh-239" value="订单服务" style="rounded=1;whiteSpace=wrap;html=1;fillColor=#dae8fc;strokeColor=#6c8ebf;sketch=1;" vertex="1" parent="1">
          <mxGeometry x="3020" y="2010" width="170" height="40" as="geometry" />
        </mxCell>
        <mxCell id="4LqL1sIL9XcWVo5Jq6jh-240" value="商品服务" style="rounded=1;whiteSpace=wrap;html=1;fillColor=#dae8fc;strokeColor=#6c8ebf;sketch=1;" vertex="1" parent="1">
          <mxGeometry x="3020" y="2070" width="130" height="40" as="geometry" />
        </mxCell>
        <mxCell id="4LqL1sIL9XcWVo5Jq6jh-241" value="用户服务" style="rounded=1;whiteSpace=wrap;html=1;fillColor=#dae8fc;strokeColor=#6c8ebf;sketch=1;" vertex="1" parent="1">
          <mxGeometry x="3020" y="2130" width="150" height="40" as="geometry" />
        </mxCell>
        <mxCell id="4LqL1sIL9XcWVo5Jq6jh-242" value="支付服务" style="rounded=1;whiteSpace=wrap;html=1;fillColor=#dae8fc;strokeColor=#6c8ebf;sketch=1;" vertex="1" parent="1">
          <mxGeometry x="3020" y="2190" width="150" height="40" as="geometry" />
        </mxCell>
        <mxCell id="4LqL1sIL9XcWVo5Jq6jh-243" value="秒杀服务" style="rounded=1;whiteSpace=wrap;html=1;fillColor=#dae8fc;strokeColor=#6c8ebf;sketch=1;" vertex="1" parent="1">
          <mxGeometry x="3020" y="1960" width="170" height="40" as="geometry" />
        </mxCell>
        <mxCell id="4LqL1sIL9XcWVo5Jq6jh-244" value="Mysql（master）" style="shape=cylinder3;whiteSpace=wrap;html=1;boundedLbl=1;backgroundOutline=1;size=15;fillColor=#dae8fc;strokeColor=#6c8ebf;sketch=1;" vertex="1" parent="1">
          <mxGeometry x="3032.5" y="2250" width="125" height="70" as="geometry" />
        </mxCell>
        <mxCell id="4LqL1sIL9XcWVo5Jq6jh-245" value="" style="rounded=1;whiteSpace=wrap;html=1;sketch=1;fillColor=#d5e8d4;strokeColor=#82b366;" vertex="1" parent="1">
          <mxGeometry x="3370" y="1950" width="320" height="380" as="geometry" />
        </mxCell>
        <mxCell id="4LqL1sIL9XcWVo5Jq6jh-246" value="订单服务" style="rounded=1;whiteSpace=wrap;html=1;fillColor=#dae8fc;strokeColor=#6c8ebf;sketch=1;" vertex="1" parent="1">
          <mxGeometry x="3440" y="2010" width="170" height="40" as="geometry" />
        </mxCell>
        <mxCell id="4LqL1sIL9XcWVo5Jq6jh-247" value="商品服务" style="rounded=1;whiteSpace=wrap;html=1;fillColor=#dae8fc;strokeColor=#6c8ebf;sketch=1;" vertex="1" parent="1">
          <mxGeometry x="3440" y="2070" width="130" height="40" as="geometry" />
        </mxCell>
        <mxCell id="4LqL1sIL9XcWVo5Jq6jh-248" value="用户服务" style="rounded=1;whiteSpace=wrap;html=1;fillColor=#dae8fc;strokeColor=#6c8ebf;sketch=1;" vertex="1" parent="1">
          <mxGeometry x="3440" y="2130" width="150" height="40" as="geometry" />
        </mxCell>
        <mxCell id="4LqL1sIL9XcWVo5Jq6jh-249" value="支付服务" style="rounded=1;whiteSpace=wrap;html=1;fillColor=#dae8fc;strokeColor=#6c8ebf;sketch=1;" vertex="1" parent="1">
          <mxGeometry x="3440" y="2190" width="150" height="40" as="geometry" />
        </mxCell>
        <mxCell id="4LqL1sIL9XcWVo5Jq6jh-250" value="秒杀服务" style="rounded=1;whiteSpace=wrap;html=1;fillColor=#dae8fc;strokeColor=#6c8ebf;sketch=1;" vertex="1" parent="1">
          <mxGeometry x="3440" y="1960" width="170" height="40" as="geometry" />
        </mxCell>
        <mxCell id="4LqL1sIL9XcWVo5Jq6jh-257" style="edgeStyle=orthogonalEdgeStyle;rounded=0;sketch=1;orthogonalLoop=1;jettySize=auto;html=1;exitX=0;exitY=0.5;exitDx=0;exitDy=0;exitPerimeter=0;entryX=1;entryY=0.5;entryDx=0;entryDy=0;entryPerimeter=0;strokeColor=#330000;" edge="1" parent="1" source="4LqL1sIL9XcWVo5Jq6jh-251" target="4LqL1sIL9XcWVo5Jq6jh-244">
          <mxGeometry relative="1" as="geometry" />
        </mxCell>
        <mxCell id="4LqL1sIL9XcWVo5Jq6jh-251" value="Mysql（slave）" style="shape=cylinder3;whiteSpace=wrap;html=1;boundedLbl=1;backgroundOutline=1;size=15;fillColor=#dae8fc;strokeColor=#6c8ebf;sketch=1;" vertex="1" parent="1">
          <mxGeometry x="3452.5" y="2250" width="125" height="70" as="geometry" />
        </mxCell>
        <mxCell id="4LqL1sIL9XcWVo5Jq6jh-255" style="edgeStyle=orthogonalEdgeStyle;rounded=0;sketch=1;orthogonalLoop=1;jettySize=auto;html=1;exitX=0.5;exitY=1;exitDx=0;exitDy=0;entryX=0.5;entryY=0;entryDx=0;entryDy=0;strokeColor=#330000;" edge="1" parent="1" source="4LqL1sIL9XcWVo5Jq6jh-252" target="4LqL1sIL9XcWVo5Jq6jh-238">
          <mxGeometry relative="1" as="geometry" />
        </mxCell>
        <mxCell id="4LqL1sIL9XcWVo5Jq6jh-256" style="edgeStyle=orthogonalEdgeStyle;rounded=0;sketch=1;orthogonalLoop=1;jettySize=auto;html=1;exitX=0.5;exitY=1;exitDx=0;exitDy=0;entryX=0.5;entryY=0;entryDx=0;entryDy=0;strokeColor=#330000;" edge="1" parent="1" source="4LqL1sIL9XcWVo5Jq6jh-252" target="4LqL1sIL9XcWVo5Jq6jh-245">
          <mxGeometry relative="1" as="geometry" />
        </mxCell>
        <mxCell id="4LqL1sIL9XcWVo5Jq6jh-252" value="Nginx" style="rounded=1;whiteSpace=wrap;html=1;fillColor=#d5e8d4;strokeColor=#82b366;sketch=1;" vertex="1" parent="1">
          <mxGeometry x="3170" y="1820" width="305" height="40" as="geometry" />
        </mxCell>
        <mxCell id="4LqL1sIL9XcWVo5Jq6jh-253" value="深圳南山" style="text;html=1;strokeColor=none;fillColor=none;align=center;verticalAlign=middle;whiteSpace=wrap;rounded=0;sketch=1;" vertex="1" parent="1">
          <mxGeometry x="2960" y="1970" width="60" height="20" as="geometry" />
        </mxCell>
        <mxCell id="4LqL1sIL9XcWVo5Jq6jh-254" value="深圳福田" style="text;html=1;strokeColor=none;fillColor=none;align=center;verticalAlign=middle;whiteSpace=wrap;rounded=0;sketch=1;" vertex="1" parent="1">
          <mxGeometry x="3377.5" y="1970" width="60" height="20" as="geometry" />
        </mxCell>
      </root>
    </mxGraphModel>
  </diagram>
</mxfile>
